<svg width="20" height="20" viewBox="0 0 20 20" fill="none" xmlns="http://www.w3.org/2000/svg">
<path opacity="0.4" d="M10.0473 1.45801H9.95201C8.12646 1.458 6.69253 1.45799 5.57302 1.6085C4.42582 1.76274 3.5156 2.08527 2.80043 2.80043C2.08527 3.5156 1.76274 4.42582 1.6085 5.57302C1.45799 6.69254 1.458 8.12644 1.45801 9.95201V10.0473C1.458 11.8729 1.45799 13.3068 1.6085 14.4263C1.76274 15.5735 2.08527 16.4838 2.80043 17.1989C3.5156 17.9141 4.42582 18.2366 5.57302 18.3908C6.69254 18.5413 8.12642 18.5413 9.95201 18.5413H10.0473C11.8729 18.5413 13.3068 18.5413 14.4263 18.3908C15.5735 18.2366 16.4838 17.9141 17.1989 17.1989C17.9141 16.4838 18.2366 15.5735 18.3908 14.4263C18.5413 13.3068 18.5413 11.8729 18.5413 10.0473V9.95201C18.5413 8.12646 18.5413 6.69254 18.3908 5.57302C18.2366 4.42582 17.9141 3.5156 17.1989 2.80043C16.4838 2.08527 15.5735 1.76274 14.4263 1.6085C13.3068 1.45799 11.8729 1.458 10.0473 1.45801Z" fill="#737373"/>
<path d="M14.166 5.62501L13.2674 5.625C12.5378 5.62495 11.8889 5.62489 11.3651 5.69532C10.7958 5.77187 10.2208 5.94839 9.75093 6.41826C9.28102 6.88814 9.10452 7.46306 9.02802 8.03243C8.9576 8.55625 8.9576 9.20509 8.95768 9.93475V10.625H8.33268C7.75738 10.625 7.29102 11.0914 7.29102 11.6667C7.29102 12.242 7.75738 12.7083 8.33268 12.7083H8.95768V18.5407C9.27535 18.5417 9.60652 18.5417 9.95168 18.5417H10.047C10.3922 18.5417 10.7233 18.5417 11.041 18.5407V12.7083H12.4993C13.0747 12.7083 13.541 12.242 13.541 11.6667C13.541 11.0914 13.0747 10.625 12.4993 10.625H11.041V10C11.041 9.18492 11.0433 8.67834 11.0928 8.31002C11.1374 7.9776 11.2034 7.91194 11.2231 7.8924L11.2241 7.8914L11.2251 7.89039C11.2446 7.87077 11.3103 7.80477 11.6427 7.76008C12.011 7.71055 12.5176 7.70834 13.3327 7.70834H14.166C14.7413 7.70834 15.2077 7.24197 15.2077 6.66668C15.2077 6.09138 14.7413 5.62501 14.166 5.62501Z" fill="#737373"/>
</svg>
