<svg width="20" height="20" viewBox="0 0 20 20" fill="none" xmlns="http://www.w3.org/2000/svg">
<path opacity="0.4" d="M10.0473 1.45801H9.95201C8.12646 1.458 6.69253 1.45799 5.57302 1.6085C4.42582 1.76274 3.5156 2.08527 2.80043 2.80043C2.08527 3.5156 1.76274 4.42582 1.6085 5.57302C1.45799 6.69254 1.458 8.12644 1.45801 9.95201V10.0473C1.458 11.8729 1.45799 13.3068 1.6085 14.4263C1.76274 15.5735 2.08527 16.4838 2.80043 17.1989C3.5156 17.9141 4.42582 18.2366 5.57302 18.3908C6.69254 18.5413 8.12642 18.5413 9.95201 18.5413H10.0473C11.8729 18.5413 13.3068 18.5413 14.4263 18.3908C15.5735 18.2366 16.4838 17.9141 17.1989 17.1989C17.9141 16.4838 18.2366 15.5735 18.3908 14.4263C18.5413 13.3068 18.5413 11.8729 18.5413 10.0473V9.95201C18.5413 8.12646 18.5413 6.69254 18.3908 5.57302C18.2366 4.42582 17.9141 3.5156 17.1989 2.80043C16.4838 2.08527 15.5735 1.76274 14.4263 1.6085C13.3068 1.45799 11.8729 1.458 10.0473 1.45801Z" fill="#737373"/>
<path d="M5.83333 7.91602C6.29357 7.91602 6.66667 8.28911 6.66667 8.74935V14.166C6.66667 14.6263 6.29357 14.9993 5.83333 14.9993C5.37309 14.9993 5 14.6263 5 14.166V8.74935C5 8.28911 5.37309 7.91602 5.83333 7.91602Z" fill="#737373"/>
<path d="M9.92588 7.98992C9.79505 7.701 9.50413 7.5 9.1663 7.5C8.70613 7.5 8.33301 7.87309 8.33301 8.33333V14.1667C8.33301 14.6269 8.70613 15 9.1663 15C9.62655 15 9.99963 14.6269 9.99963 14.1667V10.8333C9.99963 9.91283 10.7459 9.16667 11.6663 9.16667C12.5868 9.16667 13.333 9.91283 13.333 10.8333V14.1667C13.333 14.6269 13.7061 15 14.1663 15C14.6266 15 14.9996 14.6269 14.9996 14.1667V10.8333C14.9996 8.99242 13.5073 7.5 11.6663 7.5C11.0285 7.5 10.4325 7.67917 9.92588 7.98992Z" fill="#737373"/>
<path d="M5.83919 6.87435C6.41449 6.87435 6.88086 6.40798 6.88086 5.83268C6.88086 5.25738 6.41449 4.79102 5.83919 4.79102H5.83171C5.25641 4.79102 4.79004 5.25738 4.79004 5.83268C4.79004 6.40798 5.25641 6.87435 5.83171 6.87435H5.83919Z" fill="#737373"/>
</svg>
