<svg width="20" height="20" viewBox="0 0 20 20" fill="none" xmlns="http://www.w3.org/2000/svg">
<path opacity="0.4" d="M10.0473 1.45801H9.95201C8.12646 1.458 6.69253 1.45799 5.57302 1.6085C4.42582 1.76274 3.5156 2.08527 2.80043 2.80043C2.08527 3.5156 1.76274 4.42582 1.6085 5.57302C1.45799 6.69254 1.458 8.12644 1.45801 9.95201V10.0473C1.458 11.8729 1.45799 13.3068 1.6085 14.4263C1.76274 15.5735 2.08527 16.4838 2.80043 17.1989C3.5156 17.9141 4.42582 18.2366 5.57302 18.3908C6.69254 18.5413 8.12642 18.5413 9.95201 18.5413H10.0473C11.8729 18.5413 13.3068 18.5413 14.4263 18.3908C15.5735 18.2366 16.4838 17.9141 17.1989 17.1989C17.9141 16.4838 18.2366 15.5735 18.3908 14.4263C18.5413 13.3068 18.5413 11.8729 18.5413 10.0473V9.95201C18.5413 8.12646 18.5413 6.69254 18.3908 5.57302C18.2366 4.42582 17.9141 3.5156 17.1989 2.80043C16.4838 2.08527 15.5735 1.76274 14.4263 1.6085C13.3068 1.45799 11.8729 1.458 10.0473 1.45801Z" fill="#737373"/>
<path fill-rule="evenodd" clip-rule="evenodd" d="M10 5.83268C8.05452 5.83268 6.66667 7.19674 6.66667 8.66052C6.66667 9.1316 6.80258 9.57827 7.04998 9.97535C7.29334 10.366 7.17397 10.8799 6.78334 11.1233C6.39272 11.3667 5.87876 11.2473 5.63539 10.8567C5.23332 10.2113 5 9.4616 5 8.66052C5 6.08027 7.34311 4.16602 10 4.16602C12.6569 4.16602 15 6.08027 15 8.66052C15 11.0032 12.592 12.8851 10 12.377V13.2429C10 13.618 10.0001 13.9608 9.97208 14.2358C9.94358 14.5168 9.87467 14.8828 9.61575 15.191C9.10717 15.7963 8.39583 15.9181 7.79836 15.7814C7.23343 15.6521 6.72201 15.2914 6.40122 14.8343C6.13683 14.4576 6.22789 13.9379 6.60461 13.6735C6.98132 13.4091 7.50105 13.5002 7.76544 13.8769C7.86133 14.0135 8.02703 14.1239 8.17009 14.1567C8.23377 14.1713 8.27024 14.1654 8.28447 14.1613C8.28813 14.1603 8.29408 14.1586 8.30237 14.1535C8.30593 14.1336 8.31011 14.1055 8.31398 14.0673C8.3323 13.8871 8.33333 13.631 8.33333 13.204V8.25371C8.33333 7.79347 8.70642 7.42037 9.16667 7.42037C9.62692 7.42037 10 7.79347 10 8.25371V10.6608C11.8091 11.2416 13.3333 9.89635 13.3333 8.66052C13.3333 7.19674 11.9455 5.83268 10 5.83268Z" fill="#737373"/>
</svg>
