<svg width="20" height="20" viewBox="0 0 20 20" fill="none" xmlns="http://www.w3.org/2000/svg">
<path opacity="0.4" d="M10.0473 1.45801C11.8729 1.458 13.3068 1.45799 14.4263 1.6085C15.5735 1.76274 16.4838 2.08527 17.1989 2.80043C17.9141 3.5156 18.2366 4.42582 18.3908 5.57302C18.5413 6.69254 18.5413 8.12643 18.5413 9.95204V10.0473C18.5413 11.8729 18.5413 13.3068 18.3908 14.4263C18.2366 15.5735 17.9141 16.4838 17.1989 17.1989C16.4838 17.914 15.5735 18.2366 14.4263 18.3909C13.3068 18.5414 11.8729 18.5414 10.0473 18.5414H9.95201C8.12642 18.5414 6.69254 18.5414 5.57302 18.3909C4.42582 18.2366 3.5156 17.914 2.80043 17.1989C2.08527 16.4838 1.76274 15.5735 1.6085 14.4263C1.45799 13.3068 1.458 11.8729 1.45801 10.0473V9.95204C1.458 8.12644 1.45799 6.69254 1.6085 5.57302C1.76274 4.42582 2.08527 3.5156 2.80043 2.80043C3.5156 2.08527 4.42582 1.76274 5.57302 1.6085C6.69254 1.45799 8.12644 1.458 9.95201 1.45801H10.0473Z" fill="#737373"/>
<path d="M5.27653 5.54847C5.38338 5.3395 5.59831 5.20801 5.83301 5.20801H8.14783C8.34851 5.20801 8.53701 5.30438 8.65451 5.46707L10.7487 8.36679L13.7244 5.39107C13.9685 5.14699 14.3642 5.14699 14.6083 5.39107C14.8523 5.63514 14.8523 6.03087 14.6083 6.27495L11.49 9.39321L14.673 13.8004C14.8104 13.9907 14.8297 14.2419 14.7228 14.4509C14.616 14.6599 14.401 14.7914 14.1663 14.7914H11.8515C11.6508 14.7914 11.4623 14.695 11.3448 14.5323L9.25068 11.6326L6.27495 14.6083C6.03088 14.8524 5.63515 14.8524 5.39107 14.6083C5.14699 14.3642 5.14699 13.9685 5.39107 13.7244L8.50934 10.6061L5.32633 6.19894C5.18892 6.00867 5.16968 5.75745 5.27653 5.54847Z" fill="#737373"/>
</svg>
