<svg width="20" height="20" viewBox="0 0 20 20" fill="none" xmlns="http://www.w3.org/2000/svg">
<path d="M10.0001 0C8.02227 0 6.08885 0.584019 4.44435 1.6782C2.79984 2.77239 1.5181 4.32759 0.761217 6.14715C0.00433286 7.96672 -0.193702 9.96891 0.192154 11.9005C0.57801 13.8322 1.53043 15.6065 2.92897 16.9991C4.3275 18.3918 6.10935 19.3402 8.04918 19.7244C9.98901 20.1086 11.9997 19.9114 13.827 19.1577C15.6543 18.404 17.2161 17.1277 18.3149 15.4902C19.4137 13.8526 20.0002 11.9273 20.0002 9.95786C19.9951 7.31843 18.9399 4.78855 17.0656 2.92218C15.1913 1.05582 12.6507 0.00506125 10.0001 0ZM10.0001 18.3837C8.32655 18.3837 6.69059 17.8896 5.29908 16.9637C3.90757 16.0379 2.82302 14.7219 2.18258 13.1823C1.54214 11.6427 1.37458 9.94852 1.70107 8.31405C2.02756 6.67959 2.83345 5.17824 4.01683 3.99986C5.20021 2.82148 6.70793 2.01899 8.34932 1.69388C9.99072 1.36877 11.6921 1.53563 13.2382 2.17336C14.7844 2.8111 16.1059 3.89106 17.0357 5.27669C17.9655 6.66232 18.4617 8.29138 18.4617 9.95786C18.4592 12.1918 17.5669 14.3335 15.9806 15.9131C14.3943 17.4927 12.2435 18.3812 10.0001 18.3837ZM6.92315 9.95786C6.92315 10.6009 7.12634 11.2277 7.50395 11.7494C7.88156 12.2711 8.41443 12.6612 9.02709 12.8646C9.63974 13.0679 10.3011 13.0742 10.9176 12.8825C11.534 12.6907 12.0742 12.3107 12.4617 11.7962C12.5856 11.6358 12.7676 11.53 12.9688 11.5014C13.17 11.4728 13.3745 11.5236 13.5386 11.643C13.7018 11.7649 13.8097 11.9464 13.8386 12.1475C13.8674 12.3486 13.8149 12.5529 13.6924 12.7154C13.1112 13.4871 12.3009 14.0571 11.3763 14.3447C10.4516 14.6324 9.45956 14.623 8.54058 14.318C7.62159 14.0129 6.82228 13.4277 6.25587 12.6452C5.68946 11.8626 5.38467 10.9225 5.38467 9.95786C5.38467 8.99326 5.68946 8.0531 6.25587 7.27057C6.82228 6.48804 7.62159 5.90281 8.54058 5.59777C9.45956 5.29274 10.4516 5.28336 11.3763 5.57098C12.3009 5.85859 13.1112 6.42862 13.6924 7.2003C13.8149 7.36282 13.8674 7.56711 13.8386 7.76822C13.8097 7.96933 13.7018 8.15079 13.5386 8.27269C13.3745 8.39213 13.17 8.44296 12.9688 8.41434C12.7676 8.38572 12.5856 8.2799 12.4617 8.11949C12.0742 7.60503 11.534 7.22502 10.9176 7.03327C10.3011 6.84153 9.63974 6.84778 9.02709 7.05114C8.41443 7.25449 7.88156 7.64465 7.50395 8.16634C7.12634 8.68802 6.92315 9.31479 6.92315 9.95786Z" fill="white"/>
</svg>
