<svg width="93" height="124" viewBox="0 0 93 124" fill="none" xmlns="http://www.w3.org/2000/svg">
<path d="M41.6495 99.3524C41.5161 99.0829 41.445 98.7903 41.3383 98.5107C41.1234 97.9472 40.9174 97.3823 40.7454 96.8028C40.5721 96.2219 40.4298 95.6352 40.292 95.0457C40.2238 94.7545 40.1541 94.4648 40.0682 94.1794C39.9822 93.8897 39.8711 93.6101 39.791 93.3189C39.6502 92.8032 39.5687 92.2759 39.4679 91.7515C39.2175 91.2373 38.9789 90.7042 38.7329 90.1117C36.0771 83.6872 33.7592 77.2206 31.8296 70.5469L30.9018 67.3382L29.9311 63.8833L28.9263 60.1879L28.2757 57.8224C28.1853 57.4906 27.551 57.2429 27.2116 57.4646C22.3387 60.65 17.3413 63.3893 12.1083 65.9838C9.50737 67.2731 7.0561 68.5319 4.66115 70.1152C3.28731 71.0235 2.04686 72.0534 1.11763 73.4108C-0.574843 75.885 -0.204341 78.6098 1.87346 80.7697C4.28174 83.2729 7.03238 85.2343 10.0424 87.0334C18.1075 91.8515 26.6455 95.7193 35.7584 98.1993C37.7577 98.744 39.6858 99.3147 41.728 99.4914C41.6999 99.4465 41.6702 99.4016 41.6465 99.3524H41.6495Z" fill="white"/>
<path d="M52.7409 98.2858C52.8046 97.6745 52.8431 97.0632 52.8757 96.449C52.9083 95.8464 52.9513 95.2452 53.0343 94.6469C53.1099 94.1124 53.2225 93.5837 53.3026 93.0506C53.3752 92.5667 53.4434 92.067 53.6375 91.6107C53.6405 91.6049 53.6449 91.6005 53.6479 91.5947C53.5782 90.346 53.6479 89.2277 53.4938 88.0732C53.3218 86.7926 53.1692 85.5265 52.9009 84.2663L51.8798 79.4815L51.7583 79.0629L51.1877 76.8509L49.5975 71.097C49.4345 70.5089 49.4523 70.0004 49.7724 69.476L51.739 66.2703C52.114 65.6575 51.8309 65.3301 51.4219 64.8506L50.7416 64.051C50.014 63.1963 49.2552 62.3677 48.3763 61.5753C47.4041 61.3363 46.0481 61.487 45.0403 61.5435L43.9792 62.6792C43.2544 63.4542 42.5712 64.1901 41.8451 65.0158C41.5575 65.3417 41.5561 65.953 41.7991 66.3137L43.7672 69.2312C44.1689 69.8266 44.1511 70.4958 43.9673 71.1781L42.7728 75.6282L41.848 79.2106L41.1707 82.0615C40.7172 83.9722 40.4149 85.8583 40.1229 87.8095C39.8784 89.4392 39.1596 91.2369 39.9599 92.7029C39.8769 92.5508 39.7954 92.3973 39.7169 92.2437C39.7954 92.6667 39.8769 93.0897 40.0044 93.5025C40.0933 93.7894 40.2 94.0689 40.2785 94.3601C40.3571 94.6484 40.4238 94.9396 40.4905 95.2307C40.6283 95.8203 40.7795 96.4055 40.9603 96.985C41.0492 97.2733 41.1455 97.5586 41.2478 97.8426C41.3456 98.1149 41.4612 98.3829 41.5516 98.6581C41.6391 98.9218 41.7176 99.1955 41.8688 99.4331C41.8851 99.4577 41.9014 99.4809 41.9177 99.5055C42.0911 99.5186 42.2645 99.5287 42.4408 99.536C45.3752 99.649 48.2133 99.6721 51.1507 99.5302C51.6486 99.507 52.1407 99.4577 52.6283 99.3926C52.6594 99.0232 52.6994 98.6538 52.7379 98.2844L52.7409 98.2858Z" fill="#40A0CA"/>
<path d="M89.4235 70.812C87.6332 69.5618 85.797 68.4913 83.8229 67.4845L75.1486 63.062C72.0453 61.4801 69.136 59.7809 66.2846 57.8122C66.003 57.6181 65.4888 57.3226 65.1776 57.5819C64.6248 58.8422 64.3728 60.1213 64.0171 61.4337L63.0434 65.0219L62.0475 68.6391C60.0898 75.7474 56.7641 84.9822 53.7838 91.6559C53.5674 92.1673 53.5037 92.7322 53.4236 93.2755C53.3421 93.8245 53.2206 94.3677 53.1524 94.9196C53.0813 95.5078 53.0472 96.0973 53.0161 96.6884C52.985 97.3026 52.9331 97.9139 52.8679 98.5252C52.8382 98.8077 52.8101 99.0902 52.7849 99.3741C54.5692 99.1206 56.2973 98.6266 58.0772 98.1196C67.8496 95.3339 77.0664 91.0678 85.5391 85.579C87.6095 84.2376 89.3597 82.6876 91.0952 81.0217C92.0407 80.1135 92.5239 79.014 92.9951 77.8913V75.6909C92.3401 73.7237 91.2152 72.0679 89.419 70.812H89.4235Z" fill="white"/>
<path d="M50.2484 0C53.74 0.615656 57.125 1.49641 60.3291 3.19852C67.3317 6.91563 72.5647 13.0563 75.0204 20.4847C77.0019 26.4747 77.0523 33.5294 75.0115 39.5251C72.4224 47.1288 66.9315 53.4723 59.5644 57.0706C50.3521 61.57 39.1421 60.8833 30.582 55.3265C25.0777 51.7528 20.8703 46.703 18.5598 40.6869C17.1074 36.9046 16.5946 33.7916 16.5961 29.7804C16.602 20.0124 21.3208 11.0615 29.3208 5.35114C33.4097 2.4322 38.001 0.750376 42.8961 0H50.2469H50.2484ZM69.906 38.388C70.355 37.1639 70.6366 35.9659 70.9004 34.681C71.9319 29.6543 71.2828 24.5118 69.2376 19.8705C64.6729 9.51008 53.2599 3.52155 41.8957 5.76689C32.2566 7.6718 24.6983 15.0872 22.6502 24.5176C20.5235 34.3044 24.3011 44.3316 32.6005 50.2709C38.739 54.663 46.7212 55.945 53.9742 53.6577C61.5088 51.282 67.2546 45.618 69.9045 38.388H69.906Z" fill="white"/>
<path d="M92.9998 119.353V122.745L73.7306 121.302L92.9998 119.353Z" fill="white"/>
<path d="M34.4292 113.496L32.6819 113.537L28.796 107.735L28.7471 113.518L26.9228 113.527L26.9169 104.441L28.6656 104.414L32.5515 110.235L32.6004 104.424L34.4233 104.419L34.4292 113.496Z" fill="white"/>
<path d="M92.6609 113.508L90.7224 113.545L88.5617 109.662L88.489 113.539L86.7002 113.533V104.415C87.831 104.404 88.8921 104.415 89.9636 104.488C91.333 104.582 92.1733 105.655 92.2297 106.937C92.283 108.137 91.6798 109.051 90.5061 109.519L92.6609 113.508ZM90.017 107.837C90.2645 107.801 90.5135 107.242 90.4898 107.016C90.389 106.051 89.3501 106.132 88.5039 106.133L88.5009 107.995C89.0092 107.959 89.4153 107.927 90.017 107.838V107.837Z" fill="white"/>
<path d="M11.2248 111.67L7.48716 111.663L6.70467 113.521L4.84324 113.5L8.40306 104.434L10.2467 104.415L13.8258 113.526H11.9303L11.2248 111.67ZM10.5268 109.894L9.32191 107.024L8.14074 109.923L10.5268 109.896V109.894Z" fill="white"/>
<path d="M75.3813 108.48L78.9041 113.499L76.7996 113.54L74.0016 109.646L73.9349 113.539L72.149 113.531V104.425L73.9275 104.408L73.9971 107.42L76.4736 104.393L78.5899 104.449L75.3813 108.48Z" fill="white"/>
<path d="M19.2722 121.302L0.0133422 122.766L0 119.325L19.2722 121.302Z" fill="white"/>
<path d="M63.681 109.411L60.3717 109.449L60.3939 111.803L63.6662 111.826L63.6707 113.534L58.5681 113.528L58.5725 104.406L63.6766 104.413L63.6588 106.117L60.3969 106.146V107.726L63.6558 107.754L63.681 109.411Z" fill="white"/>
<path d="M25.2804 109.411L21.9695 109.449L21.9918 111.803L25.2641 111.826L25.27 113.534L20.1659 113.528L20.1704 104.406L25.2744 104.413L25.2567 106.117L21.9947 106.146L21.9962 107.726L25.2537 107.754L25.2804 109.411Z" fill="white"/>
<path d="M84.9852 109.415L81.6328 109.444L81.6595 111.805L84.9733 111.825L84.957 113.537L79.8752 113.536L79.8677 104.417L84.9778 104.41L84.9585 106.116L81.6417 106.151V107.723L84.9555 107.756L84.9852 109.415Z" fill="white"/>
<path d="M41.4419 109.428L38.1503 109.43L38.1355 111.795L41.433 111.835L41.4197 113.537L36.3393 113.536L36.3304 104.415L41.4137 104.405L41.4256 106.119L38.1399 106.149L38.1385 107.725L41.4048 107.747L41.4419 109.428Z" fill="white"/>
<path d="M70.4675 109.42L67.1671 109.433L67.17 111.805L70.4334 111.816L70.4557 113.531L65.3634 113.537L65.3649 104.411L70.4483 104.41L70.4453 106.122L67.1759 106.145V107.728L70.4379 107.75L70.4675 109.42Z" fill="white"/>
<path d="M56.4618 112.936C55.6807 113.744 54.5692 113.879 53.5259 113.675C52.5788 113.489 51.7578 112.798 51.3132 111.757L52.7967 110.87C53.1672 111.424 53.5244 111.923 54.1691 112.061C54.5499 112.142 55.1131 111.887 55.2672 111.628C56.2172 110.031 50.8182 108.733 51.8793 105.71C52.1313 104.993 52.8812 104.383 53.7882 104.23C55.0924 104.008 56.2646 104.657 56.979 105.71L55.6985 106.804C55.2658 106.342 54.9086 105.964 54.2876 105.88C54.1024 105.855 53.6844 106.052 53.5881 106.201C53.4755 106.375 53.5926 106.855 53.7585 106.997L56.1698 109.071C57.3095 110.05 57.5777 111.783 56.4632 112.936H56.4618Z" fill="white"/>
<path d="M3.48097 113.514L1.64474 113.537L1.64623 106.188L0.026367 106.145L0.0426671 104.411L5.1601 104.406L5.16752 106.137L3.48244 106.195L3.48097 113.514Z" fill="white"/>
<path d="M45.6329 113.514L43.7967 113.537L43.7982 106.187L42.1606 106.152L42.1502 104.408H47.3106L47.321 106.136L45.6344 106.196L45.6329 113.514Z" fill="white"/>
<path d="M19.1755 111.857L19.1992 113.537L14.811 113.536V104.429L16.6072 104.424L16.6131 111.827L19.1755 111.857Z" fill="white"/>
<path d="M65.2865 123.776C65.1353 123.814 64.5589 123.872 64.3558 123.796C64.1528 123.721 63.9897 123.393 63.8223 123.144L61.7637 120.086L61.8186 123.818L60.8034 123.805L60.8123 118.464L61.9712 118.435L64.3306 122.168L64.2313 118.49L65.2732 118.483L65.2865 123.777V123.776Z" fill="white"/>
<path d="M32.1255 121.243C32.0618 122.411 31.4142 123.328 30.559 123.722C29.4846 124.217 28.2589 124.051 27.4631 123.193C26.4464 122.098 26.4998 120.38 27.4438 119.249C28.1982 118.345 29.4075 118.116 30.5072 118.513C31.5386 118.885 32.1967 119.963 32.1255 121.243ZM30.5738 122.395C31.1014 121.532 31.0481 120.554 30.4849 119.804C30.233 119.467 29.7247 119.241 29.3245 119.252C28.9703 119.262 28.4886 119.56 28.2767 119.911C27.7669 120.754 27.801 121.787 28.4338 122.552C28.7035 122.877 29.1985 123.067 29.6105 123.04C29.8951 123.021 30.3678 122.731 30.5738 122.395Z" fill="white"/>
<path d="M37.7173 123.634C37.7173 123.839 37.0578 123.919 36.8533 123.823C36.665 123.734 36.4813 123.471 36.3093 123.216L34.1975 120.089L34.2627 123.799H33.2386L33.243 118.493L34.4183 118.453L36.7317 122.058L36.6902 118.475L37.7128 118.472L37.7173 123.634Z" fill="white"/>
<path d="M47.2216 118.474H48.3717L48.2754 122.016C48.2398 123.317 47.1253 124.044 45.9041 123.997C44.6829 123.951 43.8026 123.24 43.7789 122.027L43.7092 118.462L44.8949 118.475L44.9097 121.959C44.9126 122.605 45.4417 123.066 45.9723 123.096C46.614 123.133 47.2083 122.705 47.2098 121.991L47.2231 118.475L47.2216 118.474Z" fill="white"/>
<path d="M69.9041 123.04L69.8404 121.152L70.9963 121.144L71.0067 123.657C69.9649 124.009 68.637 124.152 67.6099 123.545C66.3887 122.824 66.1235 121.341 66.577 120.179C67.5151 117.776 70.6436 118.343 70.6273 118.6C70.6169 118.769 70.5784 119.094 70.5429 119.353C70.4954 119.702 69.1735 118.911 68.1909 119.696C67.8441 119.973 67.5803 120.619 67.5936 121.145C67.6218 122.373 68.471 123.295 69.9041 123.041V123.04Z" fill="white"/>
<path d="M41.8351 123.738C40.8658 124.095 39.8625 124.012 38.8592 123.813C38.9125 123.498 39.0163 123.059 39.077 122.905C39.8403 123.028 41.2986 123.299 41.5609 122.665C41.6276 122.505 41.4483 122.087 41.2763 122L39.7232 121.212C39.0592 120.874 38.8592 120.186 38.9926 119.495C39.2475 118.174 41.2645 118.31 42.3953 118.451L42.2856 119.382C41.7091 119.333 40.2508 119.004 40.0804 119.66C40.0403 119.817 40.23 120.162 40.3916 120.237L41.7417 120.857C42.2812 121.105 42.665 121.668 42.7109 122.136C42.7747 122.788 42.5805 123.466 41.8366 123.74L41.8351 123.738Z" fill="white"/>
<path d="M23.9809 122.707C24.6493 123.158 25.3399 122.95 26.1535 122.887L26.0572 123.817C25.0628 124.024 23.9735 124.057 23.0991 123.496C21.8572 122.7 21.6571 121.129 22.2395 119.926C22.8723 118.619 24.3973 118.105 25.8675 118.496C25.9179 118.745 25.8319 119.262 25.6882 119.409C25.048 119.355 24.3321 119.23 23.8712 119.582C22.8797 120.339 22.899 121.978 23.9809 122.707Z" fill="white"/>
<path d="M55.7227 123.669C55.5848 123.864 54.9683 123.857 54.5519 123.796L54.5608 119.317L53.018 119.359C52.975 119.19 52.972 118.719 53.0076 118.45L57.2551 118.444L57.2832 119.353L55.6767 119.311L55.7227 123.669Z" fill="white"/>
<path d="M53.1797 122.929L53.1827 123.831H49.6999L49.7044 118.493L50.8618 118.447L50.8189 122.952L53.1797 122.929Z" fill="white"/>
<path d="M59.3486 123.801L58.1896 123.815L58.1911 118.467L59.3367 118.455L59.3486 123.801Z" fill="white"/>
<path d="M39.2632 23.76C38.8793 23.8179 38.2154 23.8411 37.6685 23.7672L37.3084 22.7995C38.2806 22.5185 38.8556 22.717 39.2632 23.7614V23.76Z" fill="#40A0CA"/>
<path d="M30.7179 28.6803C30.835 27.0188 31.7835 26.167 33.2329 25.744L37.9813 24.3563C38.2866 24.2679 38.8913 24.3403 39.2188 24.4678L39.9717 26.7537C41.2447 27.0478 42.8735 28.2849 43.5241 28.1646C44.1169 28.056 44.2607 27.1622 44.8134 27.0057C45.6538 26.7682 46.7075 28.8078 48.9646 27.491C49.5441 27.1521 50.3962 27.4258 50.9979 27.6185C51.6441 27.0651 51.8664 26.0207 52.0517 25.1762C49.7649 25.4384 49.836 24.3838 48.4059 25.1443C47.8531 24.8517 47.0735 24.378 46.5904 23.9318C46.3059 23.2626 47.2795 22.3384 47.902 22.6498C48.0709 22.7353 48.3199 22.9033 48.4355 22.9685C48.9246 23.2452 49.2077 22.1645 49.9516 22.1558C51.9153 22.1312 53.3069 23.0018 53.5856 22.1573C53.9427 21.0708 51.8679 21.1505 52.3436 18.6154C51.7301 19.1978 51.4529 19.9916 50.7045 19.9395C50.3755 19.9163 49.8449 19.5324 49.5396 19.3513C48.6 19.4238 47.939 20.2002 47.7108 21.1114C47.4826 22.0226 46.1532 22.2543 45.9442 23.151C45.7101 24.1535 46.8942 25.0429 46.0347 25.0936C45.4685 25.1269 44.9009 24.8633 44.5971 24.4374C43.8813 23.4364 43.2751 23.7218 43.035 23.209C42.7949 22.6962 43.4767 22.2138 43.244 21.7575C42.9046 21.0926 41.6819 21.6619 40.6623 20.3726C40.523 20.4421 40.2399 20.6232 40.1658 20.7695C40.1554 20.7898 40.2473 22.4021 41.098 22.2775C41.7383 22.1833 42.6705 22.5687 42.5815 23.3683C42.5282 23.8521 42.0554 24.3548 41.6241 24.8531L40.8224 24.0955L41.7605 23.6247C40.2962 23.6986 40.3422 21.4837 38.0317 20.952C37.7813 20.8941 37.6968 21.5938 37.7427 21.8574L37.0121 22.0718C36.8535 22.1182 36.8209 22.5281 36.7335 22.7469L35.4233 22.8671L34.5668 24.5272C34.2007 25.2356 33.4715 25.6238 32.6416 25.3485L31.6753 25.027C31.5775 23.9492 31.5686 22.9844 31.6768 21.9096C31.9673 21.7517 32.4623 21.3287 32.7616 21.3113L35.0084 21.1809C35.2307 20.1466 33.9028 21.0592 33.4804 20.6507C33.3426 20.5175 33.2314 20.0742 33.3381 19.9163L33.9576 18.9906C35.2677 18.6024 36.2429 17.9216 37.0699 16.8815C37.9902 15.724 38.5074 16.499 39.5093 15.1982L42.1473 15.1301C42.7208 15.1156 43.0647 15.0359 43.3596 14.5231C43.7553 13.8336 44.6089 14.6752 44.8712 14.0726C45.3084 13.0687 46.2895 12.4821 47.5048 12.1692L45.4285 12.0736C45.347 12.0692 45.0773 12.1083 45.0091 12.1532C44.9187 12.2141 44.9068 12.3908 44.8223 12.7298C44.2384 12.2778 43.8146 11.5144 44.2355 10.6713C43.5997 10.4077 42.869 11.1305 42.8779 11.6448C42.9031 11.8345 43.2277 12.2865 43.1847 12.469C43.1002 12.8268 42.7134 13.5164 42.3978 13.6829C41.3752 14.2247 40.1673 13.6916 39.8931 12.6226L38.8513 12.0576C38.7979 11.4883 38.5608 11.3014 37.8539 11.2015L38.0925 11.6477C37.8702 11.5926 37.6375 11.3884 37.596 11.2276C37.5589 11.0798 37.9383 10.8176 38.1088 10.8364L39.2588 10.9654C39.7434 10.0397 40.5304 9.63121 41.5589 9.48924C42.2214 9.39798 42.7757 8.87938 43.2988 8.44335C46.1458 6.07344 45.9101 7.97835 47.4841 7.34096L48.2251 7.0411C48.3481 6.99185 48.726 7.05559 48.7453 7.10774L47.899 8.23475C48.3436 8.2391 48.7112 8.21882 48.9424 8.29125C49.2195 8.37816 49.3247 9.07494 49.1736 9.29223C49.1499 9.32555 48.9527 9.2734 48.9453 9.31396L48.889 9.60948C48.8949 9.57471 49.507 9.76882 49.5041 9.72681L49.4715 9.15317C49.6582 9.15751 50.2614 9.10536 50.5163 9.19083L52.2073 9.75723C52.145 9.3748 51.9109 9.0619 51.7034 8.80985C51.5819 8.66209 51.7879 8.242 51.9583 8.15508C52.1435 8.06092 52.5111 8.11597 52.7452 8.1884L53.1424 8.31153C53.2447 8.3434 53.3499 8.0841 53.4937 7.84508C56.7541 8.9156 59.8012 10.6134 62.2598 13.0253L62.9504 13.7032C63.8367 14.5724 63.9123 14.7911 64.7111 15.6429C65.8389 16.8438 66.5355 18.2967 67.3046 19.7352C67.7107 20.4957 67.9775 21.2418 68.2487 22.0588C68.3524 22.3731 68.7481 22.7787 68.6562 23.1525C68.5895 23.4263 68.7629 23.5711 68.843 23.8203C70.0434 27.5301 70.0745 31.5819 69.126 35.425C68.2961 35.5496 68.4947 34.595 68.2576 34.2893L67.2972 33.0479L65.9812 31.2284C64.8104 31.1589 63.9493 31.9064 62.454 30.7779C61.8775 30.3433 59.7611 31.1995 58.5222 28.9512C58.3888 28.7079 58.0198 28.3602 57.7649 28.1081C57.8582 28.5282 58.0524 29.2337 58.3221 29.5089L59.5092 30.7113C59.8412 31.0474 59.9627 31.4167 60.102 31.9918L61.3602 31.1517C61.4921 31.0633 61.8938 30.9923 62.0138 31.0445C62.5785 31.2907 62.1546 31.7108 62.9504 32.1816C64.0694 32.8436 62.7415 35.0194 62.0257 35.6119C61.6729 35.9031 60.8297 36.0146 60.3851 36.1667C59.6989 37.0359 58.8452 37.3444 57.7456 37.5965C57.2921 37.7008 56.2725 38.2107 55.9642 37.569C55.3907 36.3753 54.8423 35.2063 54.1265 34.0923C53.2136 32.6727 52.5733 31.1647 51.1595 30.0637C51.2751 30.9184 51.6619 31.6123 51.9375 32.3888C52.517 34.0257 53.6122 36.2247 54.8927 37.4009C55.4455 37.9079 55.7656 38.4599 55.979 39.1813C56.2977 40.2634 59.1491 38.2542 59.4973 38.0542C58.3992 39.7694 59.8338 38.3816 58.7919 40.8978C58.3102 42.0611 57.6656 42.952 56.5437 43.5836C54.6156 44.6686 52.8608 46.2417 53.4611 48.6261C53.6923 49.5417 53.63 50.8671 52.7912 51.4335C52.2117 51.8247 51.7019 52.0506 51.1565 52.5736L52.2058 52.5895L50.3607 53.0212C48.0932 53.5528 44.1791 53.505 41.7931 52.8372L41.0032 50.8106C40.8802 50.4948 41.2536 49.814 41.4241 49.4997C42.128 48.2032 40.2607 45.8217 39.1418 44.9945C38.955 44.1775 39.9361 43.0881 39.3389 42.4348C39.0928 42.1668 38.7238 42.1422 38.1888 42.219L37.0076 41.1934C35.33 40.8964 34.3622 42.5377 31.662 41.9495C30.592 41.7163 30.0777 40.7458 29.4627 39.9954C28.7335 39.1045 27.3893 38.147 27.9243 36.5651C28.7943 34.0011 26.2733 32.7625 30.7179 28.6789V28.6803ZM59.2365 22.4905L59.8204 21.9487L58.9253 22.2456L58.4436 21.2548C58.2791 20.9158 58.657 20.4074 58.7741 19.9989C58.9253 19.4759 58.0998 19.1384 57.6092 19.1703C57.1454 19.2007 56.6889 19.7729 56.7393 20.2582C56.806 20.3668 56.597 20.3842 56.2087 20.4421C56.68 20.9796 57.1157 21.4388 57.6878 21.9661L57.8004 23.4074L58.6748 24.1882C58.9223 24.4084 59.2617 24.6358 59.5196 24.5127C60.3525 24.1129 59.2054 23.1278 59.235 22.4919L59.2365 22.4905Z" fill="#40A0CA"/>
<path d="M33.6835 17.5215L32.4282 18.0212C32.24 18.0966 32.0073 17.5418 32.0473 17.3447C32.0977 17.1028 32.4786 16.8261 32.7557 16.7537L33.2863 16.6147C33.5709 16.5393 32.9602 15.3848 33.8835 15.2269C34.5757 15.1096 34.9313 15.3225 35.3137 15.7976C35.6501 16.2134 35.8013 16.5828 35.5375 17.1289C35.4041 17.4041 35.1033 17.7779 34.8558 17.83C34.549 17.8952 34.134 17.7272 33.6835 17.5215Z" fill="#40A0CA"/>
<path d="M32.4505 12.3521C31.1552 14.0557 31.2945 13.456 30.0111 14.9133L29.0433 14.4642C29.7458 13.7182 30.4898 12.9287 31.3019 12.2826C31.7569 11.9204 32.5809 11.9668 32.5942 11.1657L34.758 9.75044L35.7717 10.7311C35.4249 11.299 35.001 11.7495 34.5075 12.2029L34.0733 12.6013C33.8762 12.7824 33.3412 12.003 32.941 11.9885C32.7958 11.9827 32.5424 12.2304 32.449 12.3536L32.4505 12.3521Z" fill="#40A0CA"/>
<path d="M39.1016 14.5999L38.1517 13.4411C38.2687 13.1731 38.5755 12.808 38.8556 12.5444L40.0086 13.9061C40.1302 14.0495 39.9879 14.5637 39.853 14.6999C39.7182 14.8361 39.2276 14.7564 39.1002 14.5999H39.1016Z" fill="#40A0CA"/>
<path d="M56.6939 51.025C56.0566 51.3031 55.5661 51.4842 54.8132 51.6797L55.0251 50.7686L56.9932 49.8791L56.4034 50.4397C56.2863 50.5513 56.5471 50.8946 56.6939 51.025Z" fill="#40A0CA"/>
<path d="M27.7418 16.9518C27.684 17.001 27.3416 16.9184 27.3446 16.8634C27.349 16.7837 27.3683 16.578 27.4217 16.5056L28.3272 15.2699C28.5776 15.3902 28.8474 15.5973 29.0074 15.5452L29.6892 15.3279L27.7418 16.9503V16.9518Z" fill="#40A0CA"/>
</svg>
