<svg width="24" height="24" viewBox="0 0 24 24" fill="none" xmlns="http://www.w3.org/2000/svg">
<path d="M16.6837 10.9587C16.3253 10.9587 16.042 10.667 16.042 10.317C16.042 10.0087 15.7337 9.36699 15.217 8.80866C14.7087 8.26699 14.1503 7.95033 13.6837 7.95033C13.3253 7.95033 13.042 7.65866 13.042 7.30866C13.042 6.95866 13.3337 6.66699 13.6837 6.66699C14.517 6.66699 15.392 7.11699 16.1587 7.92533C16.8753 8.68366 17.3337 9.62533 17.3337 10.3087C17.3337 10.667 17.042 10.9587 16.6837 10.9587Z" fill="white"/>
<path d="M19.6915 10.9582C19.3331 10.9582 19.0498 10.6665 19.0498 10.3165C19.0498 7.35817 16.6415 4.95817 13.6915 4.95817C13.3331 4.95817 13.0498 4.6665 13.0498 4.3165C13.0498 3.9665 13.3331 3.6665 13.6831 3.6665C17.3498 3.6665 20.3331 6.64984 20.3331 10.3165C20.3331 10.6665 20.0415 10.9582 19.6915 10.9582Z" fill="white"/>
<path d="M11.2087 14.4587L9.66699 16.0003C9.34199 16.3253 8.82533 16.3253 8.49199 16.0087C8.40033 15.917 8.30866 15.8337 8.21699 15.742C7.35866 14.8753 6.58366 13.967 5.89199 13.017C5.20866 12.067 4.65866 11.117 4.25866 10.1753C3.86699 9.22533 3.66699 8.31699 3.66699 7.45033C3.66699 6.88366 3.76699 6.34199 3.96699 5.84199C4.16699 5.33366 4.48366 4.86699 4.92533 4.45033C5.45866 3.92533 6.04199 3.66699 6.65866 3.66699C6.89199 3.66699 7.12533 3.71699 7.33366 3.81699C7.55033 3.91699 7.74199 4.06699 7.89199 4.28366L9.82533 7.00866C9.97533 7.21699 10.0837 7.40866 10.1587 7.59199C10.2337 7.76699 10.2753 7.94199 10.2753 8.10033C10.2753 8.30033 10.217 8.50033 10.1003 8.69199C9.99199 8.88366 9.83366 9.08366 9.63366 9.28366L9.00033 9.94199C8.90866 10.0337 8.86699 10.142 8.86699 10.2753C8.86699 10.342 8.87533 10.4003 8.89199 10.467C8.91699 10.5337 8.94199 10.5837 8.95866 10.6337C9.10866 10.9087 9.36699 11.267 9.73366 11.7003C10.1087 12.1337 10.5087 12.5753 10.942 13.017C11.0253 13.1003 11.117 13.1837 11.2003 13.267C11.5337 13.592 11.542 14.1253 11.2087 14.4587Z" fill="white"/>
<path d="M11.2087 14.4587L9.66699 16.0003C9.34199 16.3253 8.82533 16.3253 8.49199 16.0087C8.40033 15.917 8.30866 15.8337 8.21699 15.742C7.35866 14.8753 6.58366 13.967 5.89199 13.017C5.20866 12.067 4.65866 11.117 4.25866 10.1753C3.86699 9.22533 3.66699 8.31699 3.66699 7.45033C3.66699 6.88366 3.76699 6.34199 3.96699 5.84199C4.16699 5.33366 4.48366 4.86699 4.92533 4.45033C5.45866 3.92533 6.04199 3.66699 6.65866 3.66699C6.89199 3.66699 7.12533 3.71699 7.33366 3.81699C7.55033 3.91699 7.74199 4.06699 7.89199 4.28366L9.82533 7.00866C9.97533 7.21699 10.0837 7.40866 10.1587 7.59199C10.2337 7.76699 10.2753 7.94199 10.2753 8.10033C10.2753 8.30033 10.217 8.50033 10.1003 8.69199C9.99199 8.88366 9.83366 9.08366 9.63366 9.28366L9.00033 9.94199C8.90866 10.0337 8.86699 10.142 8.86699 10.2753C8.86699 10.342 8.87533 10.4003 8.89199 10.467C8.91699 10.5337 8.94199 10.5837 8.95866 10.6337C9.10866 10.9087 9.36699 11.267 9.73366 11.7003C10.1087 12.1337 10.5087 12.5753 10.942 13.017C11.0253 13.1003 11.117 13.1837 11.2003 13.267C11.5337 13.592 11.542 14.1253 11.2087 14.4587Z" fill="url(#paint0_linear_2009_1919)"/>
<path d="M20.3083 17.2752C20.3083 17.5085 20.2667 17.7502 20.1833 17.9835C20.1583 18.0502 20.1333 18.1169 20.1 18.1835C19.9583 18.4835 19.775 18.7669 19.5333 19.0335C19.125 19.4835 18.675 19.8085 18.1667 20.0169C18.1583 20.0169 18.15 20.0252 18.1417 20.0252C17.65 20.2252 17.1167 20.3335 16.5417 20.3335C15.6917 20.3335 14.7833 20.1335 13.825 19.7252C12.8667 19.3169 11.9083 18.7669 10.9583 18.0752C10.6333 17.8335 10.3083 17.5919 10 17.3335L12.725 14.6085C12.9583 14.7835 13.1667 14.9169 13.3417 15.0085C13.3833 15.0252 13.4333 15.0502 13.4917 15.0752C13.5583 15.1002 13.625 15.1085 13.7 15.1085C13.8417 15.1085 13.95 15.0585 14.0417 14.9669L14.675 14.3419C14.8833 14.1335 15.0833 13.9752 15.275 13.8752C15.4667 13.7585 15.6583 13.7002 15.8667 13.7002C16.025 13.7002 16.1917 13.7335 16.375 13.8085C16.5583 13.8835 16.75 13.9919 16.9583 14.1335L19.7167 16.0919C19.9333 16.2419 20.0833 16.4169 20.175 16.6252C20.2583 16.8335 20.3083 17.0419 20.3083 17.2752Z" fill="white"/>
<path d="M20.3083 17.2752C20.3083 17.5085 20.2667 17.7502 20.1833 17.9835C20.1583 18.0502 20.1333 18.1169 20.1 18.1835C19.9583 18.4835 19.775 18.7669 19.5333 19.0335C19.125 19.4835 18.675 19.8085 18.1667 20.0169C18.1583 20.0169 18.15 20.0252 18.1417 20.0252C17.65 20.2252 17.1167 20.3335 16.5417 20.3335C15.6917 20.3335 14.7833 20.1335 13.825 19.7252C12.8667 19.3169 11.9083 18.7669 10.9583 18.0752C10.6333 17.8335 10.3083 17.5919 10 17.3335L12.725 14.6085C12.9583 14.7835 13.1667 14.9169 13.3417 15.0085C13.3833 15.0252 13.4333 15.0502 13.4917 15.0752C13.5583 15.1002 13.625 15.1085 13.7 15.1085C13.8417 15.1085 13.95 15.0585 14.0417 14.9669L14.675 14.3419C14.8833 14.1335 15.0833 13.9752 15.275 13.8752C15.4667 13.7585 15.6583 13.7002 15.8667 13.7002C16.025 13.7002 16.1917 13.7335 16.375 13.8085C16.5583 13.8835 16.75 13.9919 16.9583 14.1335L19.7167 16.0919C19.9333 16.2419 20.0833 16.4169 20.175 16.6252C20.2583 16.8335 20.3083 17.0419 20.3083 17.2752Z" fill="url(#paint1_linear_2009_1919)"/>
<defs>
<linearGradient id="paint0_linear_2009_1919" x1="11.4545" y1="9.95606" x2="3.66699" y2="9.95606" gradientUnits="userSpaceOnUse">
<stop stop-color="#032C44"/>
<stop offset="1" stop-color="#41A0CA"/>
</linearGradient>
<linearGradient id="paint1_linear_2009_1919" x1="20.3083" y1="17.0169" x2="10" y2="17.0169" gradientUnits="userSpaceOnUse">
<stop stop-color="#032C44"/>
<stop offset="1" stop-color="#41A0CA"/>
</linearGradient>
</defs>
</svg>
