<svg width="17" height="17" viewBox="0 0 17 17" fill="none" xmlns="http://www.w3.org/2000/svg">
<circle cx="8.5" cy="8.5" r="8.24242" stroke="white" stroke-width="0.5"/>
<circle cx="8.5" cy="8.5" r="8.24242" stroke="url(#paint0_linear_2009_1863)" stroke-width="0.5"/>
<path d="M5.78835 6.78169C5.67674 6.79714 5.48367 6.80333 5.32465 6.78362L5.21993 6.52556C5.50264 6.45061 5.66984 6.50354 5.78835 6.78208V6.78169Z" fill="white"/>
<path d="M5.78835 6.78169C5.67674 6.79714 5.48367 6.80333 5.32465 6.78362L5.21993 6.52556C5.50264 6.45061 5.66984 6.50354 5.78835 6.78208V6.78169Z" fill="url(#paint1_linear_2009_1863)"/>
<path d="M3.30038 8.09384C3.33448 7.65072 3.61073 7.42356 4.03288 7.31076L5.41586 6.94066C5.50478 6.91709 5.68089 6.93641 5.77628 6.9704L5.99556 7.58003C6.36634 7.65845 6.84072 7.98837 7.03021 7.95631C7.20287 7.92733 7.24473 7.68897 7.40574 7.64725C7.65048 7.58389 7.95738 8.12784 8.61477 7.77667C8.78354 7.68627 9.03174 7.75928 9.20699 7.81066C9.39518 7.66309 9.45993 7.38455 9.51389 7.15932C8.84786 7.22924 8.86858 6.948 8.45204 7.15082C8.29104 7.07278 8.064 6.94645 7.92328 6.82746C7.84041 6.64898 8.12399 6.40251 8.30528 6.48557C8.35449 6.50836 8.42701 6.55317 8.46067 6.57056C8.60312 6.64435 8.68556 6.35615 8.90224 6.35383C9.47417 6.34726 9.87949 6.57944 9.96064 6.35421C10.0647 6.06447 9.46036 6.08572 9.59892 5.40965C9.42022 5.56495 9.3395 5.77666 9.12152 5.76275C9.02569 5.75657 8.87117 5.65419 8.78225 5.6059C8.50859 5.62522 8.31607 5.83229 8.2496 6.07529C8.18313 6.31829 7.79594 6.3801 7.73508 6.61923C7.66688 6.88657 8.01177 7.12378 7.76142 7.1373C7.59653 7.14618 7.43121 7.07587 7.34272 6.96229C7.13423 6.69534 6.95769 6.77145 6.88776 6.63469C6.81784 6.49793 7.0164 6.36928 6.94863 6.24759C6.84978 6.07026 6.49368 6.22209 6.19671 5.87826C6.15613 5.8968 6.07369 5.9451 6.0521 5.98411C6.04908 5.98952 6.07585 6.4195 6.32361 6.38628C6.51008 6.36117 6.78158 6.46393 6.75568 6.67718C6.74014 6.80622 6.60245 6.94027 6.47684 7.07317L6.24332 6.87112L6.51655 6.74556C6.09009 6.76526 6.10347 6.17457 5.43054 6.03279C5.35759 6.01734 5.33299 6.20393 5.34637 6.27424L5.13357 6.33142C5.08739 6.34378 5.07789 6.45311 5.05242 6.51145L4.67085 6.54351L4.42136 6.98624C4.31474 7.17516 4.10237 7.27869 3.86065 7.20529L3.57922 7.11953C3.55073 6.8321 3.54815 6.57481 3.57966 6.28815C3.66426 6.24604 3.80842 6.13324 3.89562 6.1286L4.54999 6.09383C4.61473 5.81799 4.22798 6.06138 4.10496 5.95244C4.06482 5.91689 4.03245 5.79868 4.06353 5.75657L4.24395 5.50971C4.62552 5.40617 4.90954 5.2246 5.1504 4.94722C5.41845 4.63854 5.5691 4.84523 5.86089 4.4983L6.62921 4.48015C6.79626 4.47628 6.8964 4.45504 6.9823 4.31828C7.09755 4.13439 7.34617 4.35884 7.42257 4.19813C7.54991 3.93041 7.83565 3.77394 8.1896 3.6905L7.58487 3.665C7.56113 3.66384 7.48257 3.67427 7.46272 3.68625C7.43639 3.70247 7.43293 3.7496 7.40833 3.84C7.23826 3.71947 7.11481 3.51588 7.2374 3.29104C7.05222 3.22072 6.83942 3.4135 6.84201 3.55065C6.84935 3.60126 6.94388 3.72179 6.93136 3.77047C6.90676 3.86589 6.7941 4.04978 6.70216 4.09421C6.40433 4.23869 6.05254 4.09653 5.97268 3.81142L5.66924 3.66075C5.6537 3.50892 5.58464 3.45909 5.37874 3.43243L5.44824 3.55142C5.38349 3.53674 5.31572 3.48227 5.30364 3.43939C5.29284 3.39998 5.40334 3.33005 5.45298 3.33508L5.78794 3.36946C5.92909 3.1226 6.15829 3.01365 6.45785 2.97579C6.65079 2.95146 6.81223 2.81315 6.9646 2.69687C7.79378 2.06484 7.72515 2.57286 8.18356 2.40287L8.39938 2.3229C8.43521 2.30977 8.54528 2.32677 8.55089 2.34067L8.30442 2.64124C8.43391 2.64239 8.54096 2.63699 8.6083 2.6563C8.68902 2.67948 8.71966 2.8653 8.67563 2.92325C8.66873 2.93214 8.61132 2.91823 8.60916 2.92905L8.59275 3.00786C8.59448 2.99859 8.77275 3.05035 8.77189 3.03915L8.76239 2.88617C8.81678 2.88733 8.99246 2.87342 9.0667 2.89621L9.5592 3.04726C9.54108 2.94527 9.47288 2.86183 9.41245 2.79461C9.37706 2.7552 9.43705 2.64317 9.48669 2.61999C9.54065 2.59488 9.64769 2.60956 9.71589 2.62887L9.83157 2.66171C9.86136 2.67021 9.892 2.60106 9.93387 2.53731C10.8835 2.82281 11.7709 3.27558 12.487 3.91882L12.6882 4.09962C12.9463 4.33141 12.9683 4.38975 13.201 4.61691C13.5295 4.93717 13.7323 5.32466 13.9564 5.70828C14.0746 5.9111 14.1523 6.11006 14.2313 6.32794C14.2615 6.41178 14.3768 6.51995 14.35 6.61962C14.3306 6.69264 14.3811 6.73127 14.4044 6.79772C14.754 7.7871 14.7631 8.86765 14.4868 9.89257C14.2451 9.9258 14.303 9.67121 14.2339 9.58969L13.9542 9.25861L13.5709 8.77339C13.2299 8.75484 12.9791 8.95419 12.5436 8.65324C12.3757 8.53734 11.7593 8.76566 11.3984 8.16608C11.3596 8.10118 11.2521 8.00846 11.1779 7.94124C11.2051 8.05328 11.2616 8.24142 11.3402 8.31482L11.6859 8.63547C11.7826 8.7251 11.818 8.82361 11.8586 8.97698L12.225 8.75291C12.2635 8.72935 12.3804 8.71042 12.4154 8.72432C12.5798 8.79 12.4564 8.90203 12.6882 9.02759C13.0141 9.20414 12.6273 9.7844 12.4188 9.94241C12.3161 10.0201 12.0705 10.0498 11.941 10.0904C11.7412 10.3222 11.4925 10.4045 11.1723 10.4717C11.0402 10.4995 10.7432 10.6355 10.6534 10.4643C10.4864 10.146 10.3267 9.83424 10.1182 9.53715C9.85229 9.15855 9.66582 8.75639 9.25404 8.46278C9.2877 8.69071 9.40036 8.87576 9.48065 9.08283C9.64942 9.51938 9.9684 10.1058 10.3413 10.4195C10.5023 10.5547 10.5956 10.7019 10.6577 10.8943C10.7505 11.1829 11.581 10.6471 11.6825 10.5938C11.3626 11.0512 11.7804 10.6811 11.477 11.3521C11.3367 11.6623 11.1489 11.8999 10.8222 12.0684C10.2606 12.3577 9.74956 12.7773 9.92438 13.4132C9.99172 13.6573 9.97359 14.0108 9.72928 14.1619C9.5605 14.2662 9.41202 14.3264 9.25317 14.4659L9.55877 14.4702L9.02138 14.5853C8.36096 14.7271 7.22099 14.7143 6.52605 14.5362L6.29598 13.9957C6.26016 13.9115 6.36893 13.7299 6.41857 13.6461C6.6236 13.3004 6.07973 12.6652 5.75384 12.4446C5.69945 12.2268 5.9852 11.9362 5.81125 11.762C5.7396 11.6905 5.63212 11.684 5.47629 11.7044L5.13227 11.4309C4.64365 11.3517 4.36179 11.7894 3.57533 11.6326C3.26369 11.5704 3.11391 11.3115 2.93478 11.1114C2.72241 10.8738 2.33091 10.6185 2.48673 10.1966C2.74011 9.51282 2.00588 9.18251 3.30038 8.09345V8.09384ZM11.6065 6.44307L11.7766 6.29858L11.5158 6.37778L11.3756 6.11353C11.3277 6.02313 11.4377 5.88753 11.4718 5.77859C11.5158 5.63912 11.2754 5.54911 11.1325 5.55761C10.9974 5.56572 10.8645 5.71832 10.8792 5.84774C10.8986 5.87672 10.8377 5.88135 10.7246 5.8968C10.8619 6.04013 10.9888 6.1626 11.1554 6.30322L11.1882 6.68761L11.4429 6.89584C11.515 6.95456 11.6138 7.01522 11.6889 6.98238C11.9315 6.87575 11.5974 6.61305 11.6061 6.44346L11.6065 6.44307Z" fill="white"/>
<path d="M3.30038 8.09384C3.33448 7.65072 3.61073 7.42356 4.03288 7.31076L5.41586 6.94066C5.50478 6.91709 5.68089 6.93641 5.77628 6.9704L5.99556 7.58003C6.36634 7.65845 6.84072 7.98837 7.03021 7.95631C7.20287 7.92733 7.24473 7.68897 7.40574 7.64725C7.65048 7.58389 7.95738 8.12784 8.61477 7.77667C8.78354 7.68627 9.03174 7.75928 9.20699 7.81066C9.39518 7.66309 9.45993 7.38455 9.51389 7.15932C8.84786 7.22924 8.86858 6.948 8.45204 7.15082C8.29104 7.07278 8.064 6.94645 7.92328 6.82746C7.84041 6.64898 8.12399 6.40251 8.30528 6.48557C8.35449 6.50836 8.42701 6.55317 8.46067 6.57056C8.60312 6.64435 8.68556 6.35615 8.90224 6.35383C9.47417 6.34726 9.87949 6.57944 9.96064 6.35421C10.0647 6.06447 9.46036 6.08572 9.59892 5.40965C9.42022 5.56495 9.3395 5.77666 9.12152 5.76275C9.02569 5.75657 8.87117 5.65419 8.78225 5.6059C8.50859 5.62522 8.31607 5.83229 8.2496 6.07529C8.18313 6.31829 7.79594 6.3801 7.73508 6.61923C7.66688 6.88657 8.01177 7.12378 7.76142 7.1373C7.59653 7.14618 7.43121 7.07587 7.34272 6.96229C7.13423 6.69534 6.95769 6.77145 6.88776 6.63469C6.81784 6.49793 7.0164 6.36928 6.94863 6.24759C6.84978 6.07026 6.49368 6.22209 6.19671 5.87826C6.15613 5.8968 6.07369 5.9451 6.0521 5.98411C6.04908 5.98952 6.07585 6.4195 6.32361 6.38628C6.51008 6.36117 6.78158 6.46393 6.75568 6.67718C6.74014 6.80622 6.60245 6.94027 6.47684 7.07317L6.24332 6.87112L6.51655 6.74556C6.09009 6.76526 6.10347 6.17457 5.43054 6.03279C5.35759 6.01734 5.33299 6.20393 5.34637 6.27424L5.13357 6.33142C5.08739 6.34378 5.07789 6.45311 5.05242 6.51145L4.67085 6.54351L4.42136 6.98624C4.31474 7.17516 4.10237 7.27869 3.86065 7.20529L3.57922 7.11953C3.55073 6.8321 3.54815 6.57481 3.57966 6.28815C3.66426 6.24604 3.80842 6.13324 3.89562 6.1286L4.54999 6.09383C4.61473 5.81799 4.22798 6.06138 4.10496 5.95244C4.06482 5.91689 4.03245 5.79868 4.06353 5.75657L4.24395 5.50971C4.62552 5.40617 4.90954 5.2246 5.1504 4.94722C5.41845 4.63854 5.5691 4.84523 5.86089 4.4983L6.62921 4.48015C6.79626 4.47628 6.8964 4.45504 6.9823 4.31828C7.09755 4.13439 7.34617 4.35884 7.42257 4.19813C7.54991 3.93041 7.83565 3.77394 8.1896 3.6905L7.58487 3.665C7.56113 3.66384 7.48257 3.67427 7.46272 3.68625C7.43639 3.70247 7.43293 3.7496 7.40833 3.84C7.23826 3.71947 7.11481 3.51588 7.2374 3.29104C7.05222 3.22072 6.83942 3.4135 6.84201 3.55065C6.84935 3.60126 6.94388 3.72179 6.93136 3.77047C6.90676 3.86589 6.7941 4.04978 6.70216 4.09421C6.40433 4.23869 6.05254 4.09653 5.97268 3.81142L5.66924 3.66075C5.6537 3.50892 5.58464 3.45909 5.37874 3.43243L5.44824 3.55142C5.38349 3.53674 5.31572 3.48227 5.30364 3.43939C5.29284 3.39998 5.40334 3.33005 5.45298 3.33508L5.78794 3.36946C5.92909 3.1226 6.15829 3.01365 6.45785 2.97579C6.65079 2.95146 6.81223 2.81315 6.9646 2.69687C7.79378 2.06484 7.72515 2.57286 8.18356 2.40287L8.39938 2.3229C8.43521 2.30977 8.54528 2.32677 8.55089 2.34067L8.30442 2.64124C8.43391 2.64239 8.54096 2.63699 8.6083 2.6563C8.68902 2.67948 8.71966 2.8653 8.67563 2.92325C8.66873 2.93214 8.61132 2.91823 8.60916 2.92905L8.59275 3.00786C8.59448 2.99859 8.77275 3.05035 8.77189 3.03915L8.76239 2.88617C8.81678 2.88733 8.99246 2.87342 9.0667 2.89621L9.5592 3.04726C9.54108 2.94527 9.47288 2.86183 9.41245 2.79461C9.37706 2.7552 9.43705 2.64317 9.48669 2.61999C9.54065 2.59488 9.64769 2.60956 9.71589 2.62887L9.83157 2.66171C9.86136 2.67021 9.892 2.60106 9.93387 2.53731C10.8835 2.82281 11.7709 3.27558 12.487 3.91882L12.6882 4.09962C12.9463 4.33141 12.9683 4.38975 13.201 4.61691C13.5295 4.93717 13.7323 5.32466 13.9564 5.70828C14.0746 5.9111 14.1523 6.11006 14.2313 6.32794C14.2615 6.41178 14.3768 6.51995 14.35 6.61962C14.3306 6.69264 14.3811 6.73127 14.4044 6.79772C14.754 7.7871 14.7631 8.86765 14.4868 9.89257C14.2451 9.9258 14.303 9.67121 14.2339 9.58969L13.9542 9.25861L13.5709 8.77339C13.2299 8.75484 12.9791 8.95419 12.5436 8.65324C12.3757 8.53734 11.7593 8.76566 11.3984 8.16608C11.3596 8.10118 11.2521 8.00846 11.1779 7.94124C11.2051 8.05328 11.2616 8.24142 11.3402 8.31482L11.6859 8.63547C11.7826 8.7251 11.818 8.82361 11.8586 8.97698L12.225 8.75291C12.2635 8.72935 12.3804 8.71042 12.4154 8.72432C12.5798 8.79 12.4564 8.90203 12.6882 9.02759C13.0141 9.20414 12.6273 9.7844 12.4188 9.94241C12.3161 10.0201 12.0705 10.0498 11.941 10.0904C11.7412 10.3222 11.4925 10.4045 11.1723 10.4717C11.0402 10.4995 10.7432 10.6355 10.6534 10.4643C10.4864 10.146 10.3267 9.83424 10.1182 9.53715C9.85229 9.15855 9.66582 8.75639 9.25404 8.46278C9.2877 8.69071 9.40036 8.87576 9.48065 9.08283C9.64942 9.51938 9.9684 10.1058 10.3413 10.4195C10.5023 10.5547 10.5956 10.7019 10.6577 10.8943C10.7505 11.1829 11.581 10.6471 11.6825 10.5938C11.3626 11.0512 11.7804 10.6811 11.477 11.3521C11.3367 11.6623 11.1489 11.8999 10.8222 12.0684C10.2606 12.3577 9.74956 12.7773 9.92438 13.4132C9.99172 13.6573 9.97359 14.0108 9.72928 14.1619C9.5605 14.2662 9.41202 14.3264 9.25317 14.4659L9.55877 14.4702L9.02138 14.5853C8.36096 14.7271 7.22099 14.7143 6.52605 14.5362L6.29598 13.9957C6.26016 13.9115 6.36893 13.7299 6.41857 13.6461C6.6236 13.3004 6.07973 12.6652 5.75384 12.4446C5.69945 12.2268 5.9852 11.9362 5.81125 11.762C5.7396 11.6905 5.63212 11.684 5.47629 11.7044L5.13227 11.4309C4.64365 11.3517 4.36179 11.7894 3.57533 11.6326C3.26369 11.5704 3.11391 11.3115 2.93478 11.1114C2.72241 10.8738 2.33091 10.6185 2.48673 10.1966C2.74011 9.51282 2.00588 9.18251 3.30038 8.09345V8.09384ZM11.6065 6.44307L11.7766 6.29858L11.5158 6.37778L11.3756 6.11353C11.3277 6.02313 11.4377 5.88753 11.4718 5.77859C11.5158 5.63912 11.2754 5.54911 11.1325 5.55761C10.9974 5.56572 10.8645 5.71832 10.8792 5.84774C10.8986 5.87672 10.8377 5.88135 10.7246 5.8968C10.8619 6.04013 10.9888 6.1626 11.1554 6.30322L11.1882 6.68761L11.4429 6.89584C11.515 6.95456 11.6138 7.01522 11.6889 6.98238C11.9315 6.87575 11.5974 6.61305 11.6061 6.44346L11.6065 6.44307Z" fill="url(#paint2_linear_2009_1863)"/>
<path d="M4.16441 5.1179L3.7988 5.25118C3.74399 5.27127 3.67622 5.12331 3.68787 5.07076C3.70255 5.00625 3.81348 4.93246 3.8942 4.91314L4.04873 4.87606C4.1316 4.85597 3.95376 4.54807 4.22268 4.50596C4.42425 4.47466 4.52785 4.53145 4.63921 4.65817C4.7372 4.76904 4.78122 4.86756 4.70439 5.0132C4.66554 5.0866 4.57792 5.18628 4.50584 5.20018C4.41649 5.21757 4.29562 5.17276 4.16441 5.1179Z" fill="white"/>
<path d="M4.16441 5.1179L3.7988 5.25118C3.74399 5.27127 3.67622 5.12331 3.68787 5.07076C3.70255 5.00625 3.81348 4.93246 3.8942 4.91314L4.04873 4.87606C4.1316 4.85597 3.95376 4.54807 4.22268 4.50596C4.42425 4.47466 4.52785 4.53145 4.63921 4.65817C4.7372 4.76904 4.78122 4.86756 4.70439 5.0132C4.66554 5.0866 4.57792 5.18628 4.50584 5.20018C4.41649 5.21757 4.29562 5.17276 4.16441 5.1179Z" fill="url(#paint3_linear_2009_1863)"/>
<path d="M3.80556 3.73897C3.4283 4.19329 3.46887 4.03335 3.09507 4.42199L2.81321 4.30223C3.01781 4.10328 3.23449 3.89273 3.47103 3.72043C3.60355 3.62385 3.84354 3.63621 3.84743 3.42257L4.47762 3.04513L4.77287 3.30667C4.67187 3.45811 4.54842 3.57826 4.40468 3.69918L4.27821 3.80542C4.2208 3.85371 4.06497 3.64587 3.94843 3.642C3.90613 3.64046 3.83232 3.70652 3.80513 3.73936L3.80556 3.73897Z" fill="white"/>
<path d="M3.80556 3.73897C3.4283 4.19329 3.46887 4.03335 3.09507 4.42199L2.81321 4.30223C3.01781 4.10328 3.23449 3.89273 3.47103 3.72043C3.60355 3.62385 3.84354 3.63621 3.84743 3.42257L4.47762 3.04513L4.77287 3.30667C4.67187 3.45811 4.54842 3.57826 4.40468 3.69918L4.27821 3.80542C4.2208 3.85371 4.06497 3.64587 3.94843 3.642C3.90613 3.64046 3.83232 3.70652 3.80513 3.73936L3.80556 3.73897Z" fill="url(#paint4_linear_2009_1863)"/>
<path d="M5.74168 4.33889L5.46544 4.02983C5.49948 3.95836 5.58869 3.861 5.67014 3.79069L6.00542 4.15384C6.04075 4.19208 5.99938 4.32923 5.96016 4.36554C5.92095 4.40186 5.77831 4.38061 5.74124 4.33889H5.74168Z" fill="white"/>
<path d="M5.74168 4.33889L5.46544 4.02983C5.49948 3.95836 5.58869 3.861 5.67014 3.79069L6.00542 4.15384C6.04075 4.19208 5.99938 4.32923 5.96016 4.36554C5.92095 4.40186 5.77831 4.38061 5.74124 4.33889H5.74168Z" fill="url(#paint5_linear_2009_1863)"/>
<path d="M10.865 14.0527C10.6797 14.1269 10.537 14.1751 10.3181 14.2273L10.3797 13.9843L10.952 13.7471L10.7805 13.8966C10.7465 13.9264 10.8223 14.0179 10.865 14.0527Z" fill="white"/>
<path d="M10.865 14.0527C10.6797 14.1269 10.537 14.1751 10.3181 14.2273L10.3797 13.9843L10.952 13.7471L10.7805 13.8966C10.7465 13.9264 10.8223 14.0179 10.865 14.0527Z" fill="url(#paint6_linear_2009_1863)"/>
<path d="M2.43387 4.96616C2.41704 4.9793 2.31732 4.95728 2.31819 4.9426C2.31948 4.92135 2.32509 4.86649 2.34063 4.84717L2.60437 4.51764C2.67731 4.5497 2.75588 4.60495 2.8025 4.59104L3.00105 4.53309L2.43387 4.96578V4.96616Z" fill="white"/>
<path d="M2.43387 4.96616C2.41704 4.9793 2.31732 4.95728 2.31819 4.9426C2.31948 4.92135 2.32509 4.86649 2.34063 4.84717L2.60437 4.51764C2.67731 4.5497 2.75588 4.60495 2.8025 4.59104L3.00105 4.53309L2.43387 4.96578V4.96616Z" fill="url(#paint7_linear_2009_1863)"/>
<defs>
<linearGradient id="paint0_linear_2009_1863" x1="16.7502" y1="8.50781" x2="0.265381" y2="8.50781" gradientUnits="userSpaceOnUse">
<stop stop-color="#032C44"/>
<stop offset="1" stop-color="#41A0CA"/>
</linearGradient>
<linearGradient id="paint1_linear_2009_1863" x1="5.78835" y1="6.64537" x2="5.21993" y2="6.64537" gradientUnits="userSpaceOnUse">
<stop stop-color="#032C44"/>
<stop offset="1" stop-color="#41A0CA"/>
</linearGradient>
<linearGradient id="paint2_linear_2009_1863" x1="14.6816" y1="8.5" x2="2.45099" y2="8.5" gradientUnits="userSpaceOnUse">
<stop stop-color="#032C44"/>
<stop offset="1" stop-color="#41A0CA"/>
</linearGradient>
<linearGradient id="paint3_linear_2009_1863" x1="4.74352" y1="4.87528" x2="3.68655" y2="4.87528" gradientUnits="userSpaceOnUse">
<stop stop-color="#032C44"/>
<stop offset="1" stop-color="#41A0CA"/>
</linearGradient>
<linearGradient id="paint4_linear_2009_1863" x1="4.77287" y1="3.73356" x2="2.81321" y2="3.73356" gradientUnits="userSpaceOnUse">
<stop stop-color="#032C44"/>
<stop offset="1" stop-color="#41A0CA"/>
</linearGradient>
<linearGradient id="paint5_linear_2009_1863" x1="6.01882" y1="4.0874" x2="5.46544" y2="4.0874" gradientUnits="userSpaceOnUse">
<stop stop-color="#032C44"/>
<stop offset="1" stop-color="#41A0CA"/>
</linearGradient>
<linearGradient id="paint6_linear_2009_1863" x1="10.952" y1="13.9872" x2="10.3181" y2="13.9872" gradientUnits="userSpaceOnUse">
<stop stop-color="#032C44"/>
<stop offset="1" stop-color="#41A0CA"/>
</linearGradient>
<linearGradient id="paint7_linear_2009_1863" x1="3.00105" y1="4.74391" x2="2.31818" y2="4.74391" gradientUnits="userSpaceOnUse">
<stop stop-color="#032C44"/>
<stop offset="1" stop-color="#41A0CA"/>
</linearGradient>
</defs>
</svg>
