<svg width="24" height="24" viewBox="0 0 24 24" fill="none" xmlns="http://www.w3.org/2000/svg">
<g clip-path="url(#clip0_2009_1932)">
<path d="M14.75 10.25C15.16 10.25 15.5 10.59 15.5 11C15.5 11.41 15.16 11.75 14.75 11.75H9.25C8.84 11.75 8.5 11.41 8.5 11C8.5 10.59 8.84 10.25 9.25 10.25H14.75Z" fill="white"/>
<path d="M20.6198 8.7C19.5798 4.07 15.5398 2 11.9998 2C11.9998 2 11.9998 2 11.9897 2C8.45975 2 4.42975 4.07 3.37975 8.69C2.19975 13.85 5.35975 18.22 8.21975 20.98C9.27975 22 10.6398 22.51 11.9998 22.51C13.3597 22.51 14.7198 22 15.7698 20.98C18.6298 18.22 21.7898 13.86 20.6198 8.7ZM14.7498 11.75H9.24975C8.83975 11.75 8.49975 11.41 8.49975 11C8.49975 10.59 8.83975 10.25 9.24975 10.25H14.7498C15.1597 10.25 15.4998 10.59 15.4998 11C15.4998 11.41 15.1597 11.75 14.7498 11.75Z" fill="white"/>
<path d="M20.6198 8.7C19.5798 4.07 15.5398 2 11.9998 2C11.9998 2 11.9998 2 11.9897 2C8.45975 2 4.42975 4.07 3.37975 8.69C2.19975 13.85 5.35975 18.22 8.21975 20.98C9.27975 22 10.6398 22.51 11.9998 22.51C13.3597 22.51 14.7198 22 15.7698 20.98C18.6298 18.22 21.7898 13.86 20.6198 8.7ZM14.7498 11.75H9.24975C8.83975 11.75 8.49975 11.41 8.49975 11C8.49975 10.59 8.83975 10.25 9.24975 10.25H14.7498C15.1597 10.25 15.4998 10.59 15.4998 11C15.4998 11.41 15.1597 11.75 14.7498 11.75Z" fill="url(#paint0_linear_2009_1932)"/>
</g>
<defs>
<linearGradient id="paint0_linear_2009_1932" x1="20.8697" y1="12.255" x2="3.12598" y2="12.255" gradientUnits="userSpaceOnUse">
<stop stop-color="#032C44"/>
<stop offset="1" stop-color="#41A0CA"/>
</linearGradient>
<clipPath id="clip0_2009_1932">
<rect width="24" height="24" fill="white"/>
</clipPath>
</defs>
</svg>
