<svg width="66" height="66" viewBox="0 0 66 66" fill="none" xmlns="http://www.w3.org/2000/svg">
<g filter="url(#filter0_d_2009_1839)">
<path d="M36.5538 12.1035C39.4426 12.1035 41.7929 14.4538 41.793 17.3427V24.4503C41.793 27.3391 39.4427 29.6895 36.5538 29.6895H29.4462C26.5573 29.6895 24.207 27.3391 24.207 24.4503V17.3427C24.207 14.4538 26.5573 12.1035 29.4462 12.1035H36.5538ZM29.4462 13.8725C27.5298 13.8725 25.9761 15.4263 25.9761 17.3427V24.4503C25.9761 26.3667 27.5298 27.9204 29.4462 27.9204H36.5538C38.4702 27.9204 40.0239 26.3667 40.0239 24.4503V17.3427C40.0239 15.4263 38.4702 13.8725 36.5538 13.8725H29.4462ZM33 16.3478C35.508 16.3478 37.5486 18.3885 37.5487 20.8965C37.5487 23.4045 35.508 25.4452 33 25.4452C30.492 25.4451 28.4513 23.4044 28.4513 20.8965C28.4514 18.3886 30.4921 16.3479 33 16.3478ZM33 18.1169C31.4652 18.1169 30.2214 19.3616 30.2214 20.8965C30.2214 22.4314 31.4651 23.676 33 23.6761C34.5349 23.6761 35.7796 22.4314 35.7796 20.8965C35.7796 19.3616 34.5349 18.1169 33 18.1169ZM37.5575 15.2919C38.1594 15.292 38.6469 15.7804 38.6469 16.3823C38.6468 16.9841 38.1593 17.4716 37.5575 17.4717C36.9557 17.4717 36.4673 16.9841 36.4672 16.3823C36.4672 15.7804 36.9556 15.2919 37.5575 15.2919Z" fill="white"/>
</g>
<defs>
<filter id="filter0_d_2009_1839" x="0" y="0" width="66" height="66" filterUnits="userSpaceOnUse" color-interpolation-filters="sRGB">
<feFlood flood-opacity="0" result="BackgroundImageFix"/>
<feColorMatrix in="SourceAlpha" type="matrix" values="0 0 0 0 0 0 0 0 0 0 0 0 0 0 0 0 0 0 127 0" result="hardAlpha"/>
<feOffset dy="12"/>
<feGaussianBlur stdDeviation="12"/>
<feColorMatrix type="matrix" values="0 0 0 0 0 0 0 0 0 0 0 0 0 0 0 0 0 0 0.1 0"/>
<feBlend mode="normal" in2="BackgroundImageFix" result="effect1_dropShadow_2009_1839"/>
<feBlend mode="normal" in="SourceGraphic" in2="effect1_dropShadow_2009_1839" result="shape"/>
</filter>
</defs>
</svg>
