<svg width="22" height="22" viewBox="0 0 22 22" fill="none" xmlns="http://www.w3.org/2000/svg">
<path opacity="0.4" d="M13.065 0.24004C13.392 0.31004 13.556 0.33996 13.622 0.45996C13.689 0.57996 13.622 0.77004 13.488 1.14004C13.334 1.56004 13.25 2.02 13.25 2.5C13.25 3.39 13.543 4.22004 14.038 4.89004C14.074 4.93004 14.092 4.96002 14.098 4.97002C14.194 5.12002 14.164 5.27002 14.018 5.37002C14.009 5.38002 13.986 5.39002 13.939 5.42002C13.685 5.57002 12.909 6.01004 12.426 6.49004C12.111 6.81004 11.609 7.41004 11.515 8.29004C11.408 9.29 11.871 10.1 12.426 10.64C13.039 11.24 14.061 12 15.535 12H18.965C19.464 12 19.911 11.91 20.308 11.77C20.883 11.57 21.17 11.47 21.302 11.59C21.433 11.71 21.378 11.96 21.268 12.46C20.238 17.15 15.896 20.63 10.75 20.63C10.054 20.63 9.36002 20.57 8.677 20.44C8.439 20.4 8.289 20.37 8.177 20.35C8.093 20.34 8.009 20.37 7.977 20.39C7.863 20.44 7.71 20.52 7.477 20.65C6.045 21.41 4.37499 21.68 2.76399 21.38C2.50299 21.33 2.288 21.15 2.197 20.9C2.105 20.65 2.152 20.38 2.319 20.17C2.787 19.59 3.108 18.9 3.25 18.16C3.289 17.95 3.20201 17.67 2.93401 17.4C1.11901 15.56 0 13.06 0 10.32C0 4.59002 4.845 0 10.75 0C11.544 0 12.318 0.0800399 13.065 0.24004Z" fill="white"/>
<path d="M19.75 2.5C19.75 3.88 18.63 5 17.25 5C15.869 5 14.75 3.88 14.75 2.5C14.75 1.12 15.87 0 17.25 0C18.63 0 19.75 1.12 19.75 2.5Z" fill="white"/>
<path d="M14.715 6.70957C16.262 5.75957 18.2381 5.75957 19.7841 6.70957C20.0531 6.85957 20.68 7.21961 21.014 7.54961C21.226 7.76961 21.452 8.06961 21.493 8.44961C21.537 8.8696 21.357 9.2496 21.028 9.5696C20.545 10.0396 19.88 10.4996 18.964 10.4996H15.5351C14.6191 10.4996 13.954 10.0396 13.471 9.5696C13.142 9.2496 12.962 8.8696 13.0061 8.44961C13.047 8.06961 13.2731 7.76961 13.4861 7.54961C13.8191 7.21961 14.446 6.85957 14.715 6.70957Z" fill="white"/>
<path d="M4.75 10.75C4.75 10.2 5.197 9.75 5.75 9.75H5.75901C6.31101 9.75 6.75901 10.2 6.75901 10.75C6.75901 11.3 6.31101 11.75 5.75901 11.75H5.75C5.197 11.75 4.75 11.3 4.75 10.75Z" fill="white"/>
<path d="M8.745 10.75C8.745 10.2 9.19302 9.75 9.74502 9.75H9.75401C10.306 9.75 10.754 10.2 10.754 10.75C10.754 11.3 10.306 11.75 9.75401 11.75H9.74502C9.19302 11.75 8.745 11.3 8.745 10.75Z" fill="white"/>
</svg>
