<svg width="28" height="28" viewBox="0 0 28 28" fill="none" xmlns="http://www.w3.org/2000/svg">
<path d="M25.6663 16.2167V18.8883C25.6663 23.135 23.1347 25.6667 18.888 25.6667H9.11133C6.13633 25.6667 3.98966 24.4183 2.98633 22.2017L3.11466 22.1083L8.85466 18.2583C9.78799 17.6283 11.1063 17.6983 11.9347 18.4217L12.3313 18.7483C13.2413 19.53 14.7113 19.53 15.6213 18.7483L20.4747 14.5833C21.3847 13.8017 22.8547 13.8017 23.7647 14.5833L25.6663 16.2167Z" fill="white"/>
<path opacity="0.4" d="M24.4647 9.33398H21.0347C19.553 9.33398 18.6663 8.44732 18.6663 6.96565V3.53565C18.6663 3.06898 18.7597 2.67232 18.923 2.33398H9.11134C4.86467 2.33398 2.33301 4.86565 2.33301 9.11232V18.889C2.33301 20.1607 2.55467 21.269 2.98634 22.2023L3.11467 22.109L8.85468 18.259C9.78801 17.629 11.1063 17.699 11.9347 18.4223L12.3313 18.749C13.2413 19.5306 14.7113 19.5306 15.6213 18.749L20.4747 14.584C21.3847 13.8023 22.8547 13.8023 23.7647 14.584L25.6663 16.2173V9.11232V9.07732C25.328 9.24065 24.9313 9.33398 24.4647 9.33398Z" fill="white"/>
<path d="M10.4993 12.11C11.2357 12.11 11.942 11.8174 12.4627 11.2967C12.9834 10.776 13.276 10.0697 13.276 9.33331C13.276 8.59689 12.9834 7.89063 12.4627 7.36991C11.942 6.84918 11.2357 6.55664 10.4993 6.55664C9.76291 6.55664 9.05665 6.84918 8.53592 7.36991C8.0152 7.89063 7.72266 8.59689 7.72266 9.33331C7.72266 10.0697 8.0152 10.776 8.53592 11.2967C9.05665 11.8174 9.76291 12.11 10.4993 12.11Z" fill="white"/>
<path d="M24.4643 1.16699H21.0343C19.5527 1.16699 18.666 2.05366 18.666 3.53533V6.96533C18.666 8.44699 19.5527 9.33366 21.0343 9.33366H24.4643C25.946 9.33366 26.8327 8.44699 26.8327 6.96533V3.53533C26.8327 2.05366 25.946 1.16699 24.4643 1.16699ZM22.1777 7.66533C22.1427 7.70033 22.061 7.74699 22.0027 7.74699L20.7893 7.92199C20.7543 7.93366 20.7077 7.93366 20.6727 7.93366C20.4977 7.93366 20.346 7.87533 20.241 7.75866C20.1715 7.68729 20.1203 7.60011 20.0918 7.50461C20.0634 7.4091 20.0585 7.30812 20.0777 7.21033L20.2527 5.99699C20.2643 5.93866 20.2993 5.85699 20.3343 5.82199L22.3177 3.83866C22.3527 3.92033 22.3877 4.01366 22.4227 4.10699C22.4693 4.20033 22.516 4.28199 22.5627 4.36366C22.5977 4.43366 22.6444 4.50366 22.691 4.55033C22.7377 4.62033 22.7843 4.69033 22.8193 4.72533C22.9273 4.8687 23.0527 4.99803 23.1927 5.11033C23.216 5.13366 23.2393 5.15699 23.251 5.15699C23.3093 5.20366 23.3793 5.26199 23.426 5.29699C23.496 5.34366 23.5543 5.39033 23.6243 5.42533C23.706 5.47199 23.7993 5.51866 23.8927 5.56533C23.986 5.61199 24.0793 5.64699 24.161 5.67033L22.1777 7.66533ZM24.966 4.87699L24.5927 5.25033C24.5825 5.26556 24.5686 5.27789 24.5522 5.28607C24.5359 5.29426 24.5176 5.29802 24.4993 5.29699H24.4643C23.6243 5.05199 22.9593 4.38699 22.7143 3.54699C22.7027 3.50033 22.7143 3.45366 22.7493 3.41866L23.1343 3.03366C23.7643 2.40366 24.3593 2.41533 24.9777 3.03366C25.2927 3.34866 25.4443 3.65199 25.4443 3.95533C25.4327 4.25866 25.281 4.56199 24.966 4.87699Z" fill="white"/>
</svg>
