<svg width="24" height="24" viewBox="0 0 24 24" fill="none" xmlns="http://www.w3.org/2000/svg">
<path opacity="0.4" d="M18.3791 12.8398V17.7698C18.3791 19.0398 17.3891 20.3998 16.1991 20.7998L13.0091 21.8598C12.4491 22.0498 11.5391 22.0498 10.9891 21.8598L7.79914 20.7998C6.59914 20.3998 5.61914 19.0398 5.61914 17.7698L5.62914 12.8398L10.0491 15.7198C11.1291 16.4298 12.9091 16.4298 13.9891 15.7198L18.3791 12.8398Z" fill="#A3A3A3"/>
<path d="M19.9795 6.45957L13.9895 2.52957C12.9095 1.81957 11.1295 1.81957 10.0495 2.52957L4.02953 6.45957C2.09953 7.70957 2.09953 10.5396 4.02953 11.7996L5.62953 12.8396L10.0495 15.7196C11.1295 16.4296 12.9095 16.4296 13.9895 15.7196L18.3795 12.8396L19.7495 11.9396V14.9996C19.7495 15.4096 20.0895 15.7496 20.4995 15.7496C20.9095 15.7496 21.2495 15.4096 21.2495 14.9996V10.0796C21.6495 8.78957 21.2395 7.28957 19.9795 6.45957Z" fill="#A3A3A3"/>
</svg>
