<svg width="18" height="20" viewBox="0 0 18 20" fill="none" xmlns="http://www.w3.org/2000/svg">
<path opacity="0.4" d="M13.5 0H3.86C1.73 0 0 1.74 0 3.86V17.95C0 19.75 1.29 20.51 2.87 19.64L7.75 16.93C8.27 16.64 9.11 16.64 9.62 16.93L14.5 19.64C16.08 20.52 17.37 19.76 17.37 17.95V3.86C17.36 1.74 15.63 0 13.5 0Z" fill="#A3A3A3"/>
<path d="M8.6804 8.2803C7.6604 8.2803 6.6404 8.1003 5.6704 7.7503C5.48347 7.6826 5.33107 7.54346 5.24669 7.36345C5.16231 7.18343 5.15285 6.97728 5.2204 6.7903C5.3704 6.4003 5.8004 6.2003 6.1904 6.3403C7.8004 6.9203 9.5704 6.9203 11.1804 6.3403C11.2737 6.30354 11.3734 6.28586 11.4737 6.28831C11.5739 6.29076 11.6726 6.31328 11.764 6.35456C11.8554 6.39583 11.9376 6.45501 12.0057 6.5286C12.0738 6.60218 12.1265 6.68869 12.1606 6.78298C12.1947 6.87728 12.2096 6.97746 12.2043 7.0776C12.199 7.17774 12.1737 7.2758 12.1299 7.36598C12.086 7.45617 12.0245 7.53665 11.9491 7.60266C11.8736 7.66867 11.7856 7.71887 11.6904 7.7503C10.7204 8.1003 9.7004 8.2803 8.6804 8.2803Z" fill="#A3A3A3"/>
</svg>
