<svg width="24" height="24" viewBox="0 0 24 24" fill="none" xmlns="http://www.w3.org/2000/svg">
<path opacity="0.4" d="M16.8203 2H7.18031C5.05031 2 3.32031 3.74 3.32031 5.86V19.95C3.32031 21.75 4.61031 22.51 6.19031 21.64L11.0703 18.93C11.5903 18.64 12.4303 18.64 12.9403 18.93L17.8203 21.64C19.4003 22.52 20.6903 21.76 20.6903 19.95V5.86C20.6803 3.74 18.9503 2 16.8203 2Z" fill="#A3A3A3"/>
<path d="M12.0007 10.2803C10.9807 10.2803 9.96071 10.1003 8.99071 9.7503C8.80378 9.6826 8.65138 9.54346 8.567 9.36345C8.48262 9.18343 8.47316 8.97728 8.54071 8.7903C8.69071 8.4003 9.12071 8.2003 9.51071 8.3403C11.1207 8.9203 12.8907 8.9203 14.5007 8.3403C14.594 8.30354 14.6937 8.28586 14.794 8.28831C14.8942 8.29076 14.993 8.31328 15.0843 8.35456C15.1757 8.39583 15.2579 8.45501 15.326 8.5286C15.3942 8.60218 15.4468 8.68869 15.4809 8.78298C15.515 8.87728 15.5299 8.97746 15.5246 9.0776C15.5193 9.17774 15.494 9.2758 15.4502 9.36598C15.4063 9.45617 15.3449 9.53665 15.2694 9.60266C15.1939 9.66867 15.1059 9.71887 15.0107 9.7503C14.0407 10.1003 13.0207 10.2803 12.0007 10.2803Z" fill="#A3A3A3"/>
</svg>
