<svg width="20" height="21" viewBox="0 0 20 21" fill="none" xmlns="http://www.w3.org/2000/svg">
<path d="M19.0871 5.21C18.2371 4.27 16.8171 3.8 14.7571 3.8H14.5171V3.76C14.5171 2.08 14.5171 0 10.7571 0H9.23711C5.47711 0 5.47711 2.09 5.47711 3.76V3.81H5.23711C3.16711 3.81 1.75711 4.28 0.907108 5.22C-0.0828922 6.32 -0.0528923 7.8 0.0471077 8.81L0.0571077 8.88L0.157108 9.93C0.167108 9.94 0.187108 9.96 0.207108 9.97C0.537108 10.19 0.877108 10.41 1.23711 10.61C1.37711 10.7 1.52711 10.78 1.67711 10.86C3.38711 11.8 5.26711 12.43 7.17711 12.74C7.26711 13.68 7.67711 14.78 9.86711 14.78C12.0571 14.78 12.4871 13.69 12.5571 12.72C14.5971 12.39 16.5671 11.68 18.3471 10.64C18.4071 10.61 18.4471 10.58 18.4971 10.55C18.9571 10.29 19.3871 10.01 19.8071 9.7C19.8284 9.68873 19.8458 9.67131 19.8571 9.65L19.8971 9.29L19.9471 8.82C19.9571 8.76 19.9571 8.71 19.9671 8.64C20.0471 7.63 20.0271 6.25 19.0871 5.21ZM11.0871 12.06C11.0871 13.12 11.0871 13.28 9.85711 13.28C8.62711 13.28 8.62711 13.09 8.62711 12.07V10.81H11.0871V12.06ZM6.90711 3.8V3.76C6.90711 2.06 6.90711 1.43 9.23711 1.43H10.7571C13.0871 1.43 13.0871 2.07 13.0871 3.76V3.81H6.90711V3.8Z" fill="#A3A3A3"/>
<path opacity="0.4" d="M18.4972 10.53L18.3472 10.62C16.5594 11.659 14.5975 12.3638 12.5572 12.7C12.4772 13.66 12.0572 14.76 9.86723 14.76C7.67723 14.76 7.25723 13.67 7.17723 12.72C5.26723 12.42 3.38723 11.79 1.67723 10.84C1.52723 10.76 1.37723 10.68 1.23723 10.59C0.877226 10.39 0.537227 10.17 0.207227 9.95001C0.187227 9.94001 0.167227 9.92001 0.157227 9.91001L0.767226 16.42C0.977226 18.41 1.79723 20.46 6.19723 20.46H13.8172C18.2172 20.46 19.0372 18.41 19.2472 16.41L19.8772 9.63C19.866 9.65132 19.8485 9.66874 19.8272 9.68001C19.3972 9.99001 18.9572 10.28 18.4972 10.53Z" fill="#A3A3A3"/>
</svg>
