<svg width="17" height="17" viewBox="0 0 17 17" fill="none" xmlns="http://www.w3.org/2000/svg">
<circle cx="8.5" cy="8.5" r="8.24242" stroke="white" stroke-width="0.5"/>
<path d="M5.78835 6.78169C5.67674 6.79714 5.48367 6.80333 5.32465 6.78362L5.21993 6.52556C5.50264 6.45061 5.66984 6.50354 5.78835 6.78208V6.78169Z" fill="white"/>
<path d="M3.30076 8.09384C3.33486 7.65072 3.61111 7.42356 4.03326 7.31076L5.41624 6.94066C5.50516 6.91709 5.68127 6.93641 5.77666 6.9704L5.99594 7.58003C6.36672 7.65845 6.84109 7.98837 7.03059 7.95631C7.20324 7.92733 7.24511 7.68897 7.40611 7.64725C7.65086 7.58389 7.95775 8.12784 8.61515 7.77667C8.78392 7.68627 9.03212 7.75928 9.20737 7.81066C9.39556 7.66309 9.46031 7.38455 9.51426 7.15932C8.84824 7.22924 8.86896 6.948 8.45242 7.15082C8.29142 7.07278 8.06437 6.94645 7.92366 6.82746C7.84078 6.64898 8.12437 6.40251 8.30566 6.48557C8.35487 6.50836 8.42738 6.55317 8.46105 6.57056C8.60349 6.64435 8.68594 6.35615 8.90262 6.35383C9.47455 6.34726 9.87986 6.57944 9.96101 6.35421C10.065 6.06447 9.46074 6.08572 9.5993 5.40965C9.42059 5.56495 9.33987 5.77666 9.1219 5.76275C9.02607 5.75657 8.87154 5.65419 8.78262 5.6059C8.50896 5.62522 8.31645 5.83229 8.24998 6.07529C8.1835 6.31829 7.79632 6.3801 7.73546 6.61923C7.66726 6.88657 8.01215 7.12378 7.76179 7.1373C7.5969 7.14618 7.43158 7.07587 7.3431 6.96229C7.13461 6.69534 6.95807 6.77145 6.88814 6.63469C6.81822 6.49793 7.01677 6.36928 6.949 6.24759C6.85016 6.07026 6.49406 6.22209 6.19709 5.87826C6.15651 5.8968 6.07406 5.9451 6.05248 5.98411C6.04946 5.98952 6.07622 6.4195 6.32399 6.38628C6.51046 6.36117 6.78196 6.46393 6.75606 6.67718C6.74052 6.80622 6.60283 6.94027 6.47722 7.07317L6.2437 6.87112L6.51693 6.74556C6.09047 6.76526 6.10385 6.17457 5.43092 6.03279C5.35797 6.01734 5.33336 6.20393 5.34675 6.27424L5.13395 6.33142C5.08776 6.34378 5.07827 6.45311 5.0528 6.51145L4.67122 6.54351L4.42174 6.98624C4.31512 7.17516 4.10275 7.27869 3.86103 7.20529L3.5796 7.11953C3.55111 6.8321 3.54852 6.57481 3.58003 6.28815C3.66463 6.24604 3.8088 6.13324 3.89599 6.1286L4.55037 6.09383C4.61511 5.81799 4.22836 6.06138 4.10534 5.95244C4.0652 5.91689 4.03282 5.79868 4.0639 5.75657L4.24433 5.50971C4.6259 5.40617 4.90992 5.2246 5.15078 4.94722C5.41883 4.63854 5.56948 4.84523 5.86127 4.4983L6.62959 4.48015C6.79663 4.47628 6.89678 4.45504 6.98267 4.31828C7.09792 4.13439 7.34655 4.35884 7.42295 4.19813C7.55028 3.93041 7.83603 3.77394 8.18998 3.6905L7.58525 3.665C7.56151 3.66384 7.48295 3.67427 7.46309 3.68625C7.43676 3.70247 7.43331 3.7496 7.40871 3.84C7.23864 3.71947 7.11519 3.51588 7.23778 3.29104C7.0526 3.22072 6.8398 3.4135 6.84239 3.55065C6.84973 3.60126 6.94426 3.72179 6.93174 3.77047C6.90713 3.86589 6.79448 4.04978 6.70254 4.09421C6.4047 4.23869 6.05291 4.09653 5.97306 3.81142L5.66961 3.66075C5.65407 3.50892 5.58501 3.45909 5.37912 3.43243L5.44861 3.55142C5.38387 3.53674 5.3161 3.48227 5.30401 3.43939C5.29322 3.39998 5.40372 3.33005 5.45336 3.33508L5.78832 3.36946C5.92946 3.1226 6.15867 3.01365 6.45823 2.97579C6.65117 2.95146 6.81261 2.81315 6.96498 2.69687C7.79416 2.06484 7.72553 2.57286 8.18394 2.40287L8.39976 2.3229C8.43558 2.30977 8.54565 2.32677 8.55126 2.34067L8.3048 2.64124C8.43429 2.64239 8.54134 2.63699 8.60868 2.6563C8.68939 2.67948 8.72004 2.8653 8.67601 2.92325C8.6691 2.93214 8.61169 2.91823 8.60953 2.92905L8.59313 3.00786C8.59486 2.99859 8.77313 3.05035 8.77227 3.03915L8.76277 2.88617C8.81716 2.88733 8.99284 2.87342 9.06708 2.89621L9.55958 3.04726C9.54145 2.94527 9.47326 2.86183 9.41283 2.79461C9.37743 2.7552 9.43743 2.64317 9.48707 2.61999C9.54102 2.59488 9.64807 2.60956 9.71627 2.62887L9.83195 2.66171C9.86173 2.67021 9.89238 2.60106 9.93425 2.53731C10.8839 2.82281 11.7713 3.27558 12.4874 3.91882L12.6886 4.09962C12.9467 4.33141 12.9687 4.38975 13.2014 4.61691C13.5298 4.93717 13.7327 5.32466 13.9567 5.70828C14.075 5.9111 14.1527 6.11006 14.2317 6.32794C14.2619 6.41178 14.3772 6.51995 14.3504 6.61962C14.331 6.69264 14.3815 6.73127 14.4048 6.79772C14.7544 7.7871 14.7635 8.86765 14.4872 9.89257C14.2455 9.9258 14.3033 9.67121 14.2343 9.58969L13.9546 9.25861L13.5713 8.77339C13.2303 8.75484 12.9795 8.95419 12.544 8.65324C12.3761 8.53734 11.7597 8.76566 11.3988 8.16608C11.36 8.10118 11.2525 8.00846 11.1782 7.94124C11.2054 8.05328 11.262 8.24142 11.3405 8.31482L11.6863 8.63547C11.783 8.7251 11.8184 8.82361 11.8589 8.97698L12.2254 8.75291C12.2638 8.72935 12.3808 8.71042 12.4158 8.72432C12.5802 8.79 12.4568 8.90203 12.6886 9.02759C13.0145 9.20414 12.6277 9.7844 12.4192 9.94241C12.3165 10.0201 12.0709 10.0498 11.9414 10.0904C11.7415 10.3222 11.4929 10.4045 11.1726 10.4717C11.0406 10.4995 10.7436 10.6355 10.6538 10.4643C10.4868 10.146 10.327 9.83424 10.1186 9.53715C9.85267 9.15855 9.6662 8.75639 9.25441 8.46278C9.28808 8.69071 9.40074 8.87576 9.48103 9.08283C9.6498 9.51938 9.96878 10.1058 10.3417 10.4195C10.5027 10.5547 10.596 10.7019 10.6581 10.8943C10.7509 11.1829 11.5814 10.6471 11.6828 10.5938C11.363 11.0512 11.7808 10.6811 11.4774 11.3521C11.3371 11.6623 11.1493 11.8999 10.8226 12.0684C10.261 12.3577 9.74994 12.7773 9.92476 13.4132C9.99209 13.6573 9.97396 14.0108 9.72965 14.1619C9.56088 14.2662 9.41239 14.3264 9.25355 14.4659L9.55915 14.4702L9.02176 14.5853C8.36134 14.7271 7.22137 14.7143 6.52642 14.5362L6.29636 13.9957C6.26053 13.9115 6.36931 13.7299 6.41895 13.6461C6.62398 13.3004 6.08011 12.6652 5.75422 12.4446C5.69983 12.2268 5.98558 11.9362 5.81163 11.762C5.73997 11.6905 5.63249 11.684 5.47667 11.7044L5.13265 11.4309C4.64403 11.3517 4.36217 11.7894 3.57571 11.6326C3.26407 11.5704 3.11429 11.3115 2.93515 11.1114C2.72279 10.8738 2.33129 10.6185 2.48711 10.1966C2.74048 9.51282 2.00626 9.18251 3.30076 8.09345V8.09384ZM11.6069 6.44307L11.7769 6.29858L11.5162 6.37778L11.3759 6.11353C11.328 6.02313 11.4381 5.88753 11.4722 5.77859C11.5162 5.63912 11.2758 5.54911 11.1329 5.55761C10.9978 5.56572 10.8649 5.71832 10.8796 5.84774C10.899 5.87672 10.8381 5.88135 10.725 5.8968C10.8623 6.04013 10.9892 6.1626 11.1558 6.30322L11.1886 6.68761L11.4433 6.89584C11.5154 6.95456 11.6142 7.01522 11.6893 6.98238C11.9319 6.87575 11.5978 6.61305 11.6064 6.44346L11.6069 6.44307Z" fill="white"/>
<path d="M4.16415 5.1179L3.79855 5.25118C3.74373 5.27127 3.67597 5.12331 3.68762 5.07076C3.7023 5.00625 3.81323 4.93246 3.89394 4.91314L4.04848 4.87606C4.13135 4.85597 3.95351 4.54807 4.22242 4.50596C4.424 4.47466 4.5276 4.53145 4.63896 4.65817C4.73694 4.76904 4.78097 4.86756 4.70414 5.0132C4.66529 5.0866 4.57767 5.18628 4.50559 5.20018C4.41623 5.21757 4.29537 5.17276 4.16415 5.1179Z" fill="white"/>
<path d="M3.80505 3.73922C3.4278 4.19354 3.46837 4.0336 3.09457 4.42225L2.81271 4.30249C3.01731 4.10353 3.23399 3.89298 3.47053 3.72068C3.60305 3.6241 3.84304 3.63646 3.84692 3.42282L4.47712 3.04538L4.77237 3.30692C4.67136 3.45836 4.54791 3.57851 4.40418 3.69943L4.2777 3.80567C4.22029 3.85396 4.06447 3.64612 3.94793 3.64225C3.90562 3.64071 3.83182 3.70677 3.80462 3.73961L3.80505 3.73922Z" fill="white"/>
<path d="M5.74193 4.33889L5.46569 4.02983C5.49973 3.95836 5.58894 3.861 5.67039 3.79069L6.00567 4.15384C6.04101 4.19208 5.99963 4.32923 5.96042 4.36554C5.9212 4.40186 5.77856 4.38061 5.7415 4.33889H5.74193Z" fill="white"/>
<path d="M10.865 14.0529C10.6797 14.1271 10.537 14.1754 10.3181 14.2276L10.3797 13.9846L10.952 13.7474L10.7805 13.8969C10.7465 13.9266 10.8223 14.0182 10.865 14.0529Z" fill="white"/>
<path d="M2.43387 4.96616C2.41704 4.9793 2.31732 4.95728 2.31819 4.9426C2.31948 4.92135 2.32509 4.86649 2.34063 4.84717L2.60437 4.51764C2.67731 4.5497 2.75588 4.60495 2.8025 4.59104L3.00105 4.53309L2.43387 4.96578V4.96616Z" fill="white"/>
</svg>
