<svg width="64" height="64" viewBox="0 0 64 64" fill="none" xmlns="http://www.w3.org/2000/svg">
<path d="M29.3879 51.0153C29.3194 50.8769 29.2829 50.7267 29.2281 50.5831C29.1177 50.2938 29.012 50.0037 28.9237 49.7061C28.8347 49.4079 28.7616 49.1066 28.6908 48.8039C28.6558 48.6544 28.6201 48.5056 28.5759 48.3591C28.5318 48.2103 28.4747 48.0668 28.4336 47.9173C28.3613 47.6525 28.3195 47.3817 28.2677 47.1125C28.1391 46.8484 28.0166 46.5747 27.8903 46.2705C26.5266 42.9716 25.3364 39.6512 24.3456 36.2244L23.8692 34.5769L23.3708 32.8029L22.8548 30.9054L22.5207 29.6907C22.4743 29.5204 22.1486 29.3932 21.9744 29.507C19.4722 31.1427 16.9062 32.5492 14.2191 33.8814C12.8836 34.5434 11.6249 35.1898 10.3952 36.0028C9.68973 36.4692 9.05278 36.998 8.57564 37.695C7.70659 38.9654 7.89684 40.3645 8.96374 41.4736C10.2003 42.7589 11.6127 43.766 13.1583 44.6898C17.2996 47.1638 21.6837 49.1498 26.363 50.4232C27.3895 50.7029 28.3796 50.9959 29.4282 51.0867C29.4138 51.0636 29.3985 51.0406 29.3864 51.0153H29.3879Z" fill="white"/>
<path d="M35.0815 50.4676C35.1142 50.1537 35.134 49.8398 35.1507 49.5244C35.1675 49.215 35.1895 48.9063 35.2321 48.5991C35.271 48.3246 35.3288 48.0531 35.3699 47.7794C35.4072 47.531 35.4422 47.2744 35.5419 47.04C35.5434 47.0371 35.5457 47.0348 35.5472 47.0319C35.5114 46.3907 35.5472 45.8165 35.4681 45.2236C35.3798 44.5661 35.3014 43.916 35.1637 43.2689L34.6393 40.8121L34.5769 40.5971L34.2839 39.4613L33.4674 36.5068C33.3837 36.2048 33.3928 35.9438 33.5572 35.6745L34.567 34.0284C34.7596 33.7138 34.6142 33.5457 34.4042 33.2995L34.0549 32.8889C33.6812 32.45 33.2916 32.0246 32.8404 31.6177C32.3412 31.495 31.6448 31.5723 31.1274 31.6014L30.5825 32.1845C30.2104 32.5824 29.8596 32.9603 29.4867 33.3843C29.3391 33.5516 29.3383 33.8655 29.4631 34.0507L30.4737 35.5488C30.6799 35.8545 30.6708 36.1981 30.5764 36.5485L29.9631 38.8335L29.4882 40.673L29.1404 42.1368C28.9076 43.1179 28.7523 44.0863 28.6024 45.0883C28.4769 45.9251 28.1078 46.8481 28.5187 47.6009C28.4761 47.5228 28.4342 47.4439 28.3939 47.3651C28.4342 47.5823 28.4761 47.7995 28.5415 48.0115C28.5872 48.1588 28.642 48.3023 28.6823 48.4518C28.7227 48.5998 28.7569 48.7493 28.7911 48.8989C28.8619 49.2016 28.9395 49.5021 29.0324 49.7996C29.078 49.9476 29.1275 50.0942 29.18 50.24C29.2302 50.3798 29.2896 50.5174 29.336 50.6587C29.3809 50.7941 29.4212 50.9347 29.4989 51.0567C29.5072 51.0693 29.5156 51.0812 29.524 51.0939C29.613 51.1006 29.7021 51.1058 29.7926 51.1095C31.2994 51.1675 32.7566 51.1794 34.2649 51.1065C34.5206 51.0946 34.7733 51.0693 35.0236 51.0358C35.0396 50.8462 35.0602 50.6565 35.0799 50.4668L35.0815 50.4676Z" fill="#41A0CA"/>
<path d="M53.9184 36.3602C52.9991 35.7183 52.0562 35.1686 51.0426 34.6516L46.5885 32.3807C44.995 31.5685 43.5012 30.696 42.0371 29.6851C41.8925 29.5855 41.6284 29.4337 41.4686 29.5669C41.1848 30.214 41.0554 30.8708 40.8728 31.5447L40.3728 33.3871L39.8614 35.2444C38.8561 38.8944 37.1485 43.6362 35.6181 47.063C35.507 47.3256 35.4743 47.6156 35.4332 47.8946C35.3914 48.1765 35.329 48.4554 35.2939 48.7388C35.2574 49.0408 35.2399 49.3435 35.2239 49.647C35.208 49.9624 35.1813 50.2763 35.1478 50.5902C35.1326 50.7352 35.1182 50.8803 35.1052 51.0261C36.0215 50.8959 36.9088 50.6422 37.8227 50.3819C42.8407 48.9515 47.5732 46.761 51.9238 43.9427C52.9869 43.2539 53.8856 42.458 54.7767 41.6026C55.2623 41.1362 55.5103 40.5717 55.7523 39.9952V38.8654C55.416 37.8553 54.8384 37.0051 53.9161 36.3602H53.9184Z" fill="white"/>
<path d="M33.8002 0C35.5931 0.316123 37.3312 0.768365 38.9765 1.64235C42.5722 3.55099 45.2592 6.70404 46.5202 10.5183C47.5376 13.594 47.5635 17.2164 46.5156 20.2951C45.1861 24.1994 42.3667 27.4566 38.5838 29.3042C33.8535 31.6145 28.0974 31.262 23.7019 28.4087C20.8756 26.5737 18.7152 23.9807 17.5288 20.8916C16.7831 18.9495 16.5197 17.3511 16.5205 15.2914C16.5236 10.2759 18.9465 5.6798 23.0543 2.74767C25.1539 1.24887 27.5114 0.385298 30.025 0H33.7995H33.8002ZM43.894 19.7112C44.1246 19.0827 44.2692 18.4675 44.4046 17.8078C44.9343 15.2267 44.6009 12.5862 43.5508 10.203C41.2069 4.88317 35.3466 1.80822 29.5113 2.96114C24.5619 3.93926 20.6808 7.74687 19.6291 12.5891C18.5371 17.6144 20.4769 22.7631 24.7384 25.8127C27.8904 28.068 31.9891 28.7263 35.7134 27.5518C39.5822 26.3319 42.5326 23.4236 43.8932 19.7112H43.894Z" fill="white"/>
<path d="M55.7515 61.2844V63.0257L45.8572 62.2849L55.7515 61.2844Z" fill="white"/>
<path d="M25.6782 58.2773L24.781 58.2981L22.7857 55.3191L22.7606 58.2884L21.8238 58.2929L21.8208 53.6277L22.7188 53.6135L24.7141 56.6029L24.7392 53.6187L25.6752 53.6165L25.6782 58.2773Z" fill="white"/>
<path d="M55.5795 58.2837L54.5841 58.3023L53.4746 56.3089L53.4373 58.2994L52.5188 58.2964V53.6148C53.0994 53.6088 53.6443 53.6148 54.1945 53.652C54.8976 53.7003 55.3291 54.2515 55.358 54.9098C55.3854 55.5257 55.0757 55.995 54.473 56.2353L55.5795 58.2837ZM54.2219 55.3717C54.349 55.3531 54.4768 55.066 54.4646 54.9499C54.4129 54.4546 53.8794 54.4962 53.4449 54.497L53.4434 55.4528C53.7044 55.4342 53.9129 55.4178 54.2219 55.3724V55.3717Z" fill="white"/>
<path d="M13.7639 57.3391L11.8447 57.3353L11.4429 58.2897L10.4871 58.2785L12.315 53.6237L13.2616 53.614L15.0994 58.2919H14.1261L13.7639 57.3391ZM13.4054 56.4271L12.7868 54.9536L12.1803 56.442L13.4054 56.4279V56.4271Z" fill="white"/>
<path d="M46.7051 55.7021L48.514 58.2794L47.4334 58.3002L45.9966 56.3008L45.9624 58.2995L45.0454 58.2958V53.6201L45.9586 53.6112L45.9944 55.1576L47.266 53.6038L48.3527 53.632L46.7051 55.7021Z" fill="white"/>
<path d="M17.8959 62.2846L8.00685 63.0366L8 61.2693L17.8959 62.2846Z" fill="white"/>
<path d="M40.7004 56.1795L39.0011 56.1989L39.0125 57.4076L40.6927 57.4195L40.695 58.2964L38.075 58.2934L38.0772 53.6096L40.6981 53.6133L40.6889 54.4881L39.014 54.5029V55.3145L40.6874 55.3286L40.7004 56.1795Z" fill="white"/>
<path d="M20.9799 56.1795L19.2799 56.1989L19.2913 57.4076L20.9716 57.4195L20.9746 58.2964L18.3538 58.2934L18.356 53.6096L20.9769 53.6133L20.9678 54.4881L19.2928 54.5029L19.2936 55.3145L20.9662 55.3286L20.9799 56.1795Z" fill="white"/>
<path d="M51.6367 56.1817L49.9154 56.1966L49.9291 57.409L51.6306 57.4194L51.6223 58.2986L49.0128 58.2979L49.009 53.6155L51.6329 53.6118L51.623 54.488L49.9199 54.5059V55.3129L51.6215 55.33L51.6367 56.1817Z" fill="white"/>
<path d="M29.2794 56.188L27.5893 56.1894L27.5817 57.4034L29.2749 57.4242L29.268 58.2982L26.6594 58.2974L26.6548 53.6143L29.265 53.6091L29.2711 54.4891L27.584 54.5047L27.5832 55.314L29.2604 55.3251L29.2794 56.188Z" fill="white"/>
<path d="M44.1826 56.1847L42.4879 56.1914L42.4894 57.409L44.1651 57.415L44.1765 58.2956L41.5618 58.2986L41.5625 53.6126L44.1727 53.6118L44.1712 54.491L42.4925 54.5029V55.3159L44.1674 55.3271L44.1826 56.1847Z" fill="white"/>
<path d="M36.9921 57.9894C36.591 58.4045 36.0203 58.4736 35.4845 58.3688C34.9983 58.2736 34.5767 57.9188 34.3484 57.384L35.1101 56.9287C35.3004 57.2129 35.4838 57.4695 35.8148 57.5402C36.0104 57.5818 36.2996 57.4509 36.3787 57.3178C36.8665 56.4981 34.0942 55.8316 34.6391 54.2793C34.7684 53.9111 35.1535 53.5979 35.6192 53.5191C36.2889 53.4053 36.8908 53.7385 37.2576 54.2793L36.6001 54.8408C36.3779 54.6036 36.1945 54.4094 35.8757 54.3663C35.7806 54.3536 35.566 54.4548 35.5165 54.5314C35.4587 54.6207 35.5188 54.8669 35.604 54.9398L36.8421 56.0049C37.4273 56.5077 37.5651 57.3973 36.9928 57.9894H36.9921Z" fill="white"/>
<path d="M9.78803 58.286L8.84516 58.2979L8.84592 54.5245L8.01416 54.5022L8.02253 53.6119L10.6502 53.6096L10.654 54.4985L9.78878 54.5282L9.78803 58.286Z" fill="white"/>
<path d="M31.4302 58.2858L30.4873 58.2977L30.4881 54.5235L29.6472 54.5057L29.6418 53.6101H32.2916L32.2969 54.4975L31.4309 54.528L31.4302 58.2858Z" fill="white"/>
<path d="M17.8451 57.4362L17.8573 58.299L15.604 58.2983V53.6219L16.5263 53.6196L16.5294 57.4205L17.8451 57.4362Z" fill="white"/>
<path d="M41.521 63.5559C41.4434 63.5753 41.1473 63.605 41.0431 63.5663C40.9388 63.5277 40.8551 63.3596 40.7691 63.2316L39.7121 61.6614L39.7403 63.5775L39.219 63.5708L39.2236 60.8284L39.8187 60.8135L41.0301 62.7303L40.9792 60.8417L41.5141 60.838L41.521 63.5567V63.5559Z" fill="white"/>
<path d="M24.4975 62.2548C24.4648 62.8544 24.1323 63.3252 23.6932 63.5275C23.1415 63.7819 22.5121 63.6964 22.1035 63.256C21.5814 62.6937 21.6088 61.8115 22.0936 61.2306C22.4809 60.7665 23.1019 60.6489 23.6665 60.8527C24.1962 61.0439 24.5341 61.5973 24.4975 62.2548ZM23.7008 62.8462C23.9717 62.4029 23.9443 61.9008 23.6551 61.5155C23.5258 61.3429 23.2647 61.2269 23.0593 61.2321C22.8774 61.2373 22.6301 61.3905 22.5212 61.5705C22.2595 62.0034 22.277 62.5338 22.6019 62.9265C22.7404 63.0939 22.9946 63.1913 23.2061 63.1772C23.3522 63.1675 23.595 63.0187 23.7008 62.8462Z" fill="white"/>
<path d="M27.3673 63.4824C27.3673 63.588 27.0287 63.6289 26.9237 63.5798C26.827 63.5337 26.7327 63.3991 26.6444 63.2682L25.56 61.6623L25.5935 63.5672H25.0676L25.0699 60.8426L25.6734 60.8225L26.8613 62.6731L26.84 60.8337L27.3651 60.8322L27.3673 63.4824Z" fill="white"/>
<path d="M32.2479 60.8329H32.8384L32.7889 62.6515C32.7707 63.3194 32.1984 63.6928 31.5714 63.669C30.9443 63.6452 30.4923 63.28 30.4801 62.6574L30.4443 60.8269L31.0531 60.8336L31.0607 62.6225C31.0623 62.9542 31.3339 63.1908 31.6064 63.2064C31.9359 63.225 32.241 63.0055 32.2418 62.6388L32.2486 60.8336L32.2479 60.8329Z" fill="white"/>
<path d="M43.8924 63.1778L43.8597 62.2086L44.4533 62.2042L44.4586 63.4947C43.9236 63.6754 43.2418 63.7491 42.7144 63.4374C42.0874 63.067 41.9512 62.3053 42.184 61.7088C42.6657 60.4748 44.2722 60.7664 44.2638 60.898C44.2585 60.985 44.2387 61.1517 44.2204 61.2848C44.1961 61.4641 43.5173 61.0579 43.0127 61.4611C42.8347 61.6032 42.6992 61.9349 42.7061 62.2049C42.7205 62.8357 43.1566 63.3087 43.8924 63.1786V63.1778Z" fill="white"/>
<path d="M29.4826 63.5358C28.985 63.7188 28.4698 63.6764 27.9546 63.5745C27.982 63.4123 28.0353 63.1869 28.0665 63.1081C28.4584 63.1713 29.2072 63.3104 29.3419 62.9846C29.3761 62.9028 29.284 62.6878 29.1958 62.6432L28.3982 62.2386C28.0573 62.0653 27.9546 61.7119 28.0231 61.3571C28.154 60.6788 29.1897 60.7487 29.7703 60.8208L29.714 61.2991C29.418 61.2738 28.6692 61.105 28.5816 61.4419C28.5611 61.5223 28.6585 61.6993 28.7414 61.738L29.4347 62.0563C29.7117 62.1835 29.9088 62.4729 29.9324 62.7131C29.9651 63.0478 29.8654 63.3959 29.4834 63.5365L29.4826 63.5358Z" fill="white"/>
<path d="M20.3129 63.0068C20.6561 63.2381 21.0107 63.1317 21.4285 63.099L21.379 63.5765C20.8684 63.6829 20.3091 63.7 19.8601 63.4121C19.2224 63.003 19.1196 62.1967 19.4187 61.5786C19.7437 60.9077 20.5267 60.6436 21.2816 60.8445C21.3075 60.9724 21.2633 61.238 21.1895 61.3131C20.8608 61.2856 20.4932 61.2216 20.2566 61.4023C19.7475 61.7906 19.7573 62.6326 20.3129 63.0068Z" fill="white"/>
<path d="M36.6115 63.5006C36.5408 63.601 36.2242 63.5973 36.0104 63.566L36.0149 61.2661L35.2227 61.2877C35.2007 61.2007 35.1991 60.959 35.2174 60.8206L37.3984 60.8176L37.4128 61.2847L36.5879 61.2632L36.6115 63.5006Z" fill="white"/>
<path d="M35.3075 63.12L35.3091 63.5834H33.5208L33.523 60.8424L34.1174 60.8186L34.0953 63.1319L35.3075 63.12Z" fill="white"/>
<path d="M38.4735 63.5679L37.8784 63.5754L37.8792 60.8292L38.4674 60.8232L38.4735 63.5679Z" fill="white"/>
<path d="M28.1595 12.2C27.9624 12.2297 27.6215 12.2416 27.3407 12.2037L27.1558 11.7068C27.655 11.5625 27.9502 11.6644 28.1595 12.2007V12.2Z" fill="#41A0CA"/>
<path d="M23.7716 14.7267C23.8318 13.8735 24.3188 13.4362 25.063 13.219L27.5012 12.5064C27.658 12.461 27.9685 12.4982 28.1367 12.5637L28.5232 13.7374C29.1769 13.8884 30.0133 14.5236 30.3473 14.4619C30.6517 14.4061 30.7255 13.9472 31.0094 13.8668C31.4409 13.7449 31.9819 14.7922 33.1409 14.116C33.4385 13.942 33.876 14.0826 34.185 14.1815C34.5168 13.8973 34.6309 13.361 34.7261 12.9274C33.5519 13.062 33.5884 12.5205 32.854 12.911C32.5702 12.7608 32.1699 12.5176 31.9218 12.2885C31.7757 11.9448 32.2757 11.4703 32.5953 11.6302C32.682 11.6741 32.8099 11.7603 32.8692 11.7938C33.1204 11.9359 33.2657 11.381 33.6477 11.3765C34.656 11.3639 35.3706 11.8109 35.5137 11.3773C35.6971 10.8194 34.6317 10.8603 34.876 9.55865C34.5609 9.85766 34.4186 10.2653 34.0343 10.2385C33.8654 10.2266 33.5929 10.0295 33.4362 9.93651C32.9537 9.9737 32.6143 10.3724 32.4971 10.8402C32.3799 11.3081 31.6973 11.4271 31.59 11.8875C31.4698 12.4023 32.0778 12.859 31.6364 12.885C31.3457 12.9021 31.0543 12.7667 30.8983 12.5481C30.5307 12.0341 30.2195 12.1806 30.0962 11.9173C29.9729 11.654 30.323 11.4063 30.2035 11.172C30.0292 10.8306 29.4014 11.1229 28.8779 10.4609C28.8063 10.4966 28.661 10.5896 28.6229 10.6647C28.6176 10.6751 28.6648 11.503 29.1016 11.439C29.4303 11.3907 29.909 11.5885 29.8633 11.9991C29.8359 12.2476 29.5932 12.5057 29.3717 12.7615L28.9601 12.3725L29.4418 12.1308C28.6899 12.1687 28.7135 11.0314 27.5271 10.7584C27.3985 10.7287 27.3551 11.0879 27.3787 11.2233L27.0036 11.3334C26.9221 11.3572 26.9054 11.5677 26.8605 11.68L26.1878 11.7418L25.7479 12.5942C25.56 12.9579 25.1855 13.1572 24.7594 13.0159L24.2632 12.8508C24.213 12.2974 24.2084 11.802 24.264 11.2501C24.4132 11.169 24.6673 10.9518 24.821 10.9429L25.9747 10.8759C26.0888 10.3449 25.407 10.8135 25.1901 10.6037C25.1193 10.5353 25.0623 10.3077 25.1171 10.2266L25.4352 9.7513C26.1079 9.55195 26.6086 9.20236 27.0332 8.66829C27.5058 8.07398 27.7714 8.47193 28.2858 7.80398L29.6404 7.76902C29.9349 7.76158 30.1114 7.72067 30.2629 7.45736C30.466 7.1033 30.9044 7.53546 31.0391 7.22603C31.2636 6.71056 31.7673 6.40932 32.3913 6.24865L31.3252 6.19956C31.2833 6.19733 31.1448 6.21741 31.1098 6.24047C31.0634 6.27171 31.0573 6.36246 31.014 6.53651C30.7141 6.30444 30.4965 5.91245 30.7126 5.47954C30.3861 5.34417 30.011 5.71533 30.0155 5.97939C30.0285 6.07683 30.1951 6.3089 30.1731 6.40262C30.1297 6.58635 29.9311 6.9404 29.769 7.02594C29.2439 7.30413 28.6237 7.03041 28.4829 6.48147L27.9479 6.19138C27.9205 5.89906 27.7988 5.80311 27.4358 5.75178L27.5583 5.98088C27.4442 5.95261 27.3247 5.84773 27.3034 5.76517C27.2844 5.6893 27.4792 5.55467 27.5667 5.56434L28.1572 5.63054C28.406 5.15524 28.8101 4.94548 29.3383 4.87259C29.6784 4.82573 29.963 4.55944 30.2317 4.33555C31.6935 3.11866 31.5725 4.09679 32.3807 3.76951L32.7612 3.61554C32.8243 3.59025 33.0184 3.62297 33.0283 3.64975L32.5938 4.22844C32.8221 4.23067 33.0108 4.22026 33.1295 4.25745C33.2718 4.30208 33.3258 4.65986 33.2482 4.77143C33.236 4.78854 33.1348 4.76176 33.131 4.78259L33.1021 4.93433C33.1051 4.91647 33.4194 5.01615 33.4179 4.99457L33.4012 4.70002C33.4971 4.70225 33.8068 4.67548 33.9377 4.71936L34.806 5.0102C34.774 4.81383 34.6538 4.65316 34.5472 4.52374C34.4848 4.44787 34.5906 4.23216 34.6781 4.18753C34.7732 4.13918 34.962 4.16745 35.0822 4.20464L35.2861 4.26786C35.3386 4.28423 35.3927 4.15108 35.4665 4.02835C37.1407 4.57804 38.7053 5.44979 39.9677 6.68825L40.3223 7.03636C40.7774 7.48265 40.8162 7.59496 41.2264 8.03233C41.8055 8.64896 42.1632 9.39501 42.5581 10.1336C42.7666 10.5241 42.9036 10.9072 43.0429 11.3267C43.0961 11.4881 43.2993 11.6964 43.2522 11.8883C43.2179 12.0289 43.3069 12.1032 43.348 12.2312C43.9644 14.1361 43.9804 16.2166 43.4934 18.1899C43.0672 18.2539 43.1692 17.7637 43.0475 17.6068L42.5543 16.9693L41.8786 16.0351C41.2774 15.9994 40.8353 16.3832 40.0674 15.8037C39.7714 15.5806 38.6847 16.0202 38.0485 14.8658C37.98 14.7408 37.7905 14.5623 37.6597 14.4329C37.7076 14.6486 37.8073 15.0108 37.9458 15.1522L38.5553 15.7695C38.7258 15.9421 38.7882 16.1318 38.8597 16.4271L39.5058 15.9957C39.5735 15.9503 39.7798 15.9138 39.8414 15.9406C40.1313 16.0671 39.9137 16.2828 40.3223 16.5245C40.8969 16.8644 40.2151 17.9816 39.8475 18.2859C39.6664 18.4354 39.2334 18.4927 39.0051 18.5708C38.6527 19.017 38.2144 19.1755 37.6498 19.3049C37.4169 19.3585 36.8933 19.6203 36.7351 19.2908C36.4406 18.6779 36.159 18.0776 35.7914 17.5056C35.3227 16.7767 34.9939 16.0023 34.2679 15.437C34.3273 15.8759 34.5259 16.2322 34.6675 16.6309C34.965 17.4714 35.5274 18.6005 36.1849 19.2045C36.4687 19.4648 36.6331 19.7482 36.7427 20.1186C36.9063 20.6743 38.3704 19.6426 38.5493 19.5399C37.9854 20.4206 38.722 19.708 38.187 21.0001C37.9397 21.5973 37.6087 22.0548 37.0326 22.3791C36.0426 22.9362 35.1416 23.744 35.4498 24.9683C35.5685 25.4384 35.5365 26.119 35.1058 26.4099C34.8082 26.6107 34.5465 26.7267 34.2664 26.9952L34.8052 27.0034L33.8578 27.2251C32.6935 27.4981 30.6837 27.4735 29.4585 27.1306L29.0529 26.09C28.9897 25.9279 29.1815 25.5783 29.269 25.4169C29.6305 24.7511 28.6716 23.5283 28.0971 23.1036C28.0012 22.6841 28.505 22.1247 28.1983 21.7893C28.072 21.6516 27.8825 21.639 27.6078 21.6784L27.0013 21.1518C26.1398 20.9993 25.6429 21.8421 24.2564 21.5401C23.7069 21.4203 23.4429 20.922 23.1271 20.5367C22.7527 20.0792 22.0625 19.5876 22.3372 18.7753C22.7839 17.4587 21.4894 16.8228 23.7716 14.726V14.7267ZM38.4153 11.5484L38.7151 11.2702L38.2555 11.4227L38.0082 10.9139C37.9237 10.7398 38.1178 10.4787 38.1779 10.269C38.2555 10.0005 37.8316 9.82716 37.5798 9.84353C37.3416 9.85915 37.1072 10.153 37.1331 10.4021C37.1673 10.4579 37.06 10.4668 36.8606 10.4966C37.1026 10.7726 37.3263 11.0083 37.6201 11.2791L37.6779 12.0192L38.1269 12.4201C38.254 12.5332 38.4283 12.65 38.5607 12.5867C38.9883 12.3814 38.3993 11.8756 38.4146 11.5491L38.4153 11.5484Z" fill="#41A0CA"/>
<path d="M25.2939 8.99744L24.6493 9.25406C24.5527 9.29274 24.4332 9.00786 24.4537 8.9067C24.4796 8.78248 24.6752 8.64041 24.8175 8.60322L25.0899 8.53181C25.236 8.49313 24.9225 7.90031 25.3966 7.81923C25.752 7.75898 25.9346 7.86832 26.131 8.1123C26.3037 8.32577 26.3813 8.51545 26.2459 8.79587C26.1774 8.93719 26.0229 9.1291 25.8958 9.15588C25.7383 9.18935 25.5252 9.10306 25.2939 8.99744Z" fill="#41A0CA"/>
<path d="M24.6614 6.34225C23.9963 7.21698 24.0678 6.90904 23.4088 7.65732L22.9119 7.42673C23.2726 7.04367 23.6546 6.63829 24.0716 6.30654C24.3052 6.12059 24.7283 6.14439 24.7352 5.73306L25.8462 5.00635L26.3668 5.50991C26.1887 5.80149 25.971 6.03282 25.7176 6.26563L25.4947 6.47018C25.3934 6.56316 25.1187 6.16299 24.9133 6.15555C24.8387 6.15257 24.7086 6.27977 24.6606 6.34299L24.6614 6.34225Z" fill="#41A0CA"/>
<path d="M28.0769 7.49762L27.5891 6.90256C27.6492 6.76496 27.8068 6.57751 27.9506 6.44214L28.5426 7.14133C28.605 7.21497 28.532 7.47902 28.4627 7.54894C28.3935 7.61886 28.1416 7.57795 28.0761 7.49762H28.0769Z" fill="#41A0CA"/>
<path d="M37.1124 26.2007C36.7852 26.3435 36.5333 26.4365 36.1467 26.5369L36.2555 26.069L37.2661 25.6123L36.9633 25.9002C36.9031 25.9574 37.0371 26.1337 37.1124 26.2007Z" fill="#41A0CA"/>
<path d="M22.244 8.70513C22.2143 8.73042 22.0385 8.68802 22.04 8.65975C22.0423 8.61884 22.0522 8.51322 22.0796 8.47603L22.5446 7.84155C22.6732 7.90329 22.8117 8.00966 22.8939 7.98288L23.2439 7.87131L22.244 8.70438V8.70513Z" fill="#41A0CA"/>
</svg>
