<svg width="64" height="64" viewBox="0 0 64 64" fill="none" xmlns="http://www.w3.org/2000/svg">
<path opacity="0.4" d="M25.5819 14C29.5189 13.9999 32.6749 13.9999 35.153 14.3299C37.7173 14.6714 39.8543 15.3986 41.5504 17.0784C43.249 18.7608 43.9869 20.8852 44.3328 23.4343C44.6664 25.8926 44.6663 29.0216 44.6663 32.9181V41.7485C44.6663 45.6451 44.6664 48.7741 44.3328 51.2325C43.9869 53.7813 43.249 55.9059 41.5504 57.5883C39.8543 59.268 37.7173 59.9952 35.153 60.3368C32.6749 60.6667 29.5191 60.6667 25.5819 60.6667H22.4174C18.4803 60.6667 15.3245 60.6667 12.8464 60.3368C10.282 59.9952 8.14493 59.268 6.44896 57.5883C4.75037 55.9059 4.01261 53.7813 3.66661 51.2325C3.3329 48.7741 3.33296 45.6451 3.33301 41.7485V32.9181C3.33296 29.0216 3.3329 25.8926 3.66661 23.4343C4.01261 20.8852 4.75037 18.7608 6.44896 17.0784C8.14493 15.3986 10.282 14.6714 12.8464 14.3299C15.3246 13.9999 18.4804 13.9999 22.4175 14H25.5819Z" fill="#40A0CA"/>
<path d="M43.4114 3.33301C46.733 3.33291 49.4954 3.33283 51.6869 3.63069C53.9991 3.94499 56.069 4.63467 57.7277 6.31133C59.3821 7.98395 60.0589 10.0648 60.3679 12.3885C60.6618 14.5982 60.6615 17.3858 60.6615 20.7483V28.5845C60.6615 31.9469 60.6618 34.7346 60.3679 36.9442C60.0589 39.268 59.3821 41.3488 57.7277 43.0213C56.069 44.6981 53.9991 45.3877 51.6869 45.7021C49.7717 45.9623 47.4207 45.9952 44.6413 45.9991C44.6615 44.6973 44.6615 43.2821 44.6615 41.7482V40.6653C47.4458 40.66 49.4311 40.6264 50.9685 40.4173C52.6786 40.1847 53.4311 39.781 53.9359 39.2709C54.4445 38.7565 54.8493 37.984 55.081 36.241C55.3226 34.4245 55.3282 31.9941 55.3282 28.3997V20.933C55.3282 17.3386 55.3226 14.9082 55.081 13.0916C54.8493 11.3487 54.4445 10.5762 53.9359 10.0619C53.4311 9.55163 52.6786 9.14787 50.9685 8.91544C49.1786 8.67213 46.7815 8.66635 43.2237 8.66635H40.7618C37.2039 8.66635 34.8069 8.67213 33.017 8.91544C32.5418 8.98003 32.3941 9.55549 32.7549 9.87128L39.0151 15.349C37.8589 14.8265 36.5693 14.5188 35.1482 14.3296C32.6701 13.9996 29.5141 13.9996 25.577 13.9997H23.458C23.5026 13.368 23.5625 12.7698 23.6428 12.2054C23.8955 10.4293 24.3769 8.77304 25.3969 7.33589C25.6556 6.97133 25.9424 6.63029 26.2579 6.31133C27.9165 4.63467 29.9863 3.94499 32.2986 3.63069C34.4901 3.33283 37.2525 3.33291 40.5741 3.33301H43.4114Z" fill="#40A0CA"/>
<path d="M15.9997 29.333C14.5269 29.333 13.333 30.5269 13.333 31.9997C13.333 33.4725 14.5269 34.6663 15.9997 34.6663H23.9997C25.4724 34.6663 26.6663 33.4725 26.6663 31.9997C26.6663 30.5269 25.4724 29.333 23.9997 29.333H15.9997Z" fill="#40A0CA"/>
<path d="M15.9997 42.666C14.5269 42.666 13.333 43.8599 13.333 45.3327C13.333 46.8055 14.5269 47.9993 15.9997 47.9993H29.333C30.8058 47.9993 31.9997 46.8055 31.9997 45.3327C31.9997 43.8599 30.8058 42.666 29.333 42.666H15.9997Z" fill="#40A0CA"/>
</svg>
