<svg width="20" height="20" viewBox="0 0 20 20" fill="none" xmlns="http://www.w3.org/2000/svg">
<path opacity="0.4" d="M17.5 18.333H2.5C2.15833 18.333 1.875 18.0497 1.875 17.708C1.875 17.3663 2.15833 17.083 2.5 17.083H17.5C17.8417 17.083 18.125 17.3663 18.125 17.708C18.125 18.0497 17.8417 18.333 17.5 18.333Z" fill="#40A0CA"/>
<path opacity="0.4" d="M15.8505 2.90005C14.2338 1.28338 12.6505 1.24172 10.9921 2.90005L9.9838 3.90838C9.90047 3.99172 9.86714 4.12505 9.90047 4.24172C10.2192 5.33537 10.8085 6.33098 11.614 7.13648C12.4195 7.94198 13.4152 8.53134 14.5088 8.85005C14.5679 8.86939 14.6311 8.87183 14.6915 8.85711C14.7519 8.84238 14.8069 8.81107 14.8505 8.76672L15.8505 7.75838C16.6755 6.94172 17.0755 6.15005 17.0755 5.35005C17.0838 4.52505 16.6838 3.72505 15.8505 2.90005Z" fill="#40A0CA"/>
<path d="M13.0079 9.60866C12.7663 9.49199 12.5329 9.37533 12.3079 9.24199C12.1252 9.13312 11.9472 9.01634 11.7746 8.89199C11.6329 8.80033 11.4663 8.66699 11.3079 8.53366C11.2569 8.49648 11.2095 8.45463 11.1663 8.40866C10.8913 8.17533 10.5829 7.87533 10.3079 7.54199C10.2829 7.52533 10.2413 7.46699 10.1829 7.39199C10.0996 7.29199 9.95795 7.12532 9.83295 6.93366C9.71416 6.77693 9.6056 6.6127 9.50795 6.44199C9.37461 6.21699 9.25795 5.99199 9.14128 5.75866C9.02461 5.50866 8.93295 5.26699 8.84961 5.04199L3.61628 10.2753C3.50795 10.3837 3.40795 10.592 3.38295 10.7337L2.93295 13.9253C2.84961 14.492 3.00795 15.0253 3.35795 15.3837C3.65795 15.6753 4.07461 15.8337 4.52461 15.8337C4.62461 15.8337 4.72461 15.8253 4.82461 15.8087L8.02461 15.3587C8.17461 15.3337 8.38295 15.2337 8.48295 15.1253L13.7163 9.89199C13.4829 9.80866 13.2579 9.71699 13.0079 9.60866Z" fill="#40A0CA"/>
</svg>
