<svg width="20" height="20" viewBox="0 0 20 20" fill="none" xmlns="http://www.w3.org/2000/svg">
<path d="M17.5584 4.35866C16.2167 4.22533 14.875 4.12533 13.525 4.05033V4.04199L13.3417 2.95866C13.2167 2.19199 13.0334 1.04199 11.0834 1.04199H8.90005C6.95838 1.04199 6.77505 2.14199 6.64172 2.95033L6.46672 4.01699C5.69172 4.06699 4.91672 4.11699 4.14172 4.19199L2.44172 4.35866C2.09172 4.39199 1.84172 4.70033 1.87505 5.04199C1.90838 5.38366 2.20838 5.63366 2.55838 5.60033L4.25838 5.43366C8.62505 5.00033 13.0251 5.16699 17.4417 5.60866H17.5084C17.8251 5.60866 18.1 5.36699 18.1334 5.04199C18.1459 4.87552 18.0928 4.71077 17.9853 4.58303C17.8778 4.4553 17.7245 4.37475 17.5584 4.35866Z" fill="#FF3B30"/>
<path opacity="0.399" d="M16.0254 6.78398C15.8254 6.57565 15.5504 6.45898 15.2671 6.45898H4.73378C4.45044 6.45898 4.16711 6.57565 3.97544 6.78398C3.78378 6.99232 3.67544 7.27565 3.69211 7.56732L4.20878 16.1173C4.30044 17.384 4.41711 18.9673 7.32544 18.9673H12.6754C15.5838 18.9673 15.7004 17.3923 15.7921 16.1173L16.3088 7.57565C16.3254 7.27565 16.2171 6.99232 16.0254 6.78398Z" fill="#FF3B30"/>
<path fill-rule="evenodd" clip-rule="evenodd" d="M7.9834 14.167C7.9834 14.0012 8.04925 13.8423 8.16646 13.725C8.28367 13.6078 8.44264 13.542 8.6084 13.542H11.3834C11.5492 13.542 11.7081 13.6078 11.8253 13.725C11.9426 13.8423 12.0084 14.0012 12.0084 14.167C12.0084 14.3328 11.9426 14.4917 11.8253 14.6089C11.7081 14.7261 11.5492 14.792 11.3834 14.792H8.6084C8.44264 14.792 8.28367 14.7261 8.16646 14.6089C8.04925 14.4917 7.9834 14.3328 7.9834 14.167Z" fill="#FF3B30"/>
<path fill-rule="evenodd" clip-rule="evenodd" d="M7.29199 10.834C7.29199 10.6682 7.35784 10.5093 7.47505 10.392C7.59226 10.2748 7.75123 10.209 7.91699 10.209H12.0837C12.2494 10.209 12.4084 10.2748 12.5256 10.392C12.6428 10.5093 12.7087 10.6682 12.7087 10.834C12.7087 10.9997 12.6428 11.1587 12.5256 11.2759C12.4084 11.3931 12.2494 11.459 12.0837 11.459H7.91699C7.75123 11.459 7.59226 11.3931 7.47505 11.2759C7.35784 11.1587 7.29199 10.9997 7.29199 10.834Z" fill="#FF3B30"/>
</svg>
