<svg width="48" height="48" viewBox="0 0 48 48" fill="none" xmlns="http://www.w3.org/2000/svg">
<path d="M35 35.6599H31.3C30.48 35.6599 29.8 34.9799 29.8 34.1599C29.8 33.3399 30.48 32.6599 31.3 32.6599H35C35.82 32.6599 36.5 33.3399 36.5 34.1599C36.5 34.9799 35.82 35.6599 35 35.6599Z" fill="#40A0CA"/>
<path d="M25.94 35.6599H13C12.18 35.6599 11.5 34.9799 11.5 34.1599C11.5 33.3399 12.18 32.6599 13 32.6599H25.94C26.3378 32.6599 26.7194 32.8179 27.0007 33.0993C27.282 33.3806 27.44 33.7621 27.44 34.1599C27.44 34.5577 27.282 34.9393 27.0007 35.2206C26.7194 35.5019 26.3378 35.6599 25.94 35.6599Z" fill="#40A0CA"/>
<path d="M35 28.1399H23.94C23.12 28.1399 22.44 27.4599 22.44 26.6399C22.44 25.8199 23.12 25.1399 23.94 25.1399H35C35.82 25.1399 36.5 25.8199 36.5 26.6399C36.5 27.4599 35.82 28.1399 35 28.1399Z" fill="#40A0CA"/>
<path d="M18.54 28.1399H13C12.18 28.1399 11.5 27.4599 11.5 26.6399C11.5 25.8199 12.18 25.1399 13 25.1399H18.54C19.36 25.1399 20.04 25.8199 20.04 26.6399C20.04 27.4599 19.36 28.1399 18.54 28.1399Z" fill="#40A0CA"/>
<path opacity="0.4" d="M32.38 4H15.62C8.34 4 4 8.34 4 15.62V32.36C4 39.66 8.34 44 15.62 44H32.36C39.64 44 43.98 39.66 43.98 32.38V15.62C44 8.34 39.66 4 32.38 4Z" fill="#40A0CA"/>
</svg>
