<svg width="48" height="48" viewBox="0 0 48 48" fill="none" xmlns="http://www.w3.org/2000/svg">
<path d="M42.18 13.96C40.48 12.08 37.64 11.14 33.52 11.14H33.04V11.06C33.04 7.70004 33.04 3.54004 25.52 3.54004H22.48C14.96 3.54004 14.96 7.72004 14.96 11.06V11.16H14.48C10.34 11.16 7.52 12.1 5.82 13.98C3.84 16.18 3.9 19.14 4.1 21.16L4.12 21.3L4.32 23.4C4.34 23.42 4.38 23.46 4.42 23.48C5.08 23.92 5.76 24.36 6.48 24.76C6.76 24.94 7.06 25.1 7.36 25.26C10.78 27.14 14.54 28.4 18.36 29.02C18.54 30.9 19.36 33.1 23.74 33.1C28.12 33.1 28.98 30.92 29.12 28.98C33.2 28.32 37.14 26.9 40.7 24.82C40.82 24.76 40.9 24.7 41 24.64C41.92 24.12 42.78 23.56 43.62 22.94C43.6626 22.9175 43.6975 22.8827 43.72 22.84L43.8 22.12L43.9 21.18C43.92 21.06 43.92 20.96 43.94 20.82C44.1 18.8 44.06 16.04 42.18 13.96ZM26.18 27.66C26.18 29.78 26.18 30.1 23.72 30.1C21.26 30.1 21.26 29.72 21.26 27.68V25.16H26.18V27.66ZM17.82 11.14V11.06C17.82 7.66004 17.82 6.40004 22.48 6.40004H25.52C30.18 6.40004 30.18 7.68004 30.18 11.06V11.16H17.82V11.14Z" fill="#40A0CA"/>
<path opacity="0.4" d="M41 24.6L40.7 24.7801C37.1244 26.8579 33.2005 28.2676 29.12 28.9401C28.96 30.8601 28.12 33.0601 23.74 33.0601C19.36 33.0601 18.52 30.88 18.36 28.98C14.54 28.38 10.78 27.12 7.35999 25.22C7.05999 25.06 6.75999 24.9 6.47999 24.72C5.75999 24.32 5.07999 23.8801 4.41999 23.4401C4.37999 23.4201 4.33999 23.3801 4.31999 23.3601L5.53999 36.3801C5.95999 40.3601 7.59999 44.46 16.4 44.46H31.64C40.44 44.46 42.08 40.3601 42.5 36.3601L43.76 22.8C43.7375 22.8427 43.7026 22.8775 43.66 22.9C42.8 23.52 41.92 24.1 41 24.6Z" fill="#40A0CA"/>
</svg>

