<svg width="48" height="48" viewBox="0 0 48 48" fill="none" xmlns="http://www.w3.org/2000/svg">
<path opacity="0.4" d="M2.5 24C2.5 12.1259 12.1259 2.5 24 2.5C35.8742 2.5 45.5 12.1259 45.5 24C45.5 35.8742 35.8742 45.5 24 45.5C12.1259 45.5 2.5 35.8742 2.5 24Z" fill="#40A0CA"/>
<path d="M23.9714 10.5C20.3798 10.5 17.4644 13.4081 17.4644 17C17.4644 20.5918 20.3798 23.5 23.9714 23.5C27.5632 23.5 30.4786 20.5918 30.4786 17C30.4786 13.4081 27.5632 10.5 23.9714 10.5Z" fill="#40A0CA"/>
<path d="M34.07 30.9605C28.7352 25.2005 19.1377 25.4975 13.9159 30.9513L13.5409 31.3263C13.2504 31.6169 13.0917 32.0139 13.102 32.4247C13.1124 32.8355 13.2907 33.2241 13.5955 33.4997C16.3437 35.9847 19.9909 37.5001 23.9884 37.5001C27.986 37.5001 31.6332 35.9847 34.3814 33.4997C34.6862 33.2241 34.8646 32.8355 34.8748 32.4247C34.8852 32.0139 34.7266 31.6169 34.436 31.3263L34.07 30.9605Z" fill="#40A0CA"/>
</svg>
