<svg width="132" height="40" viewBox="0 0 132 40" fill="none" xmlns="http://www.w3.org/2000/svg">
<rect x="0.5" y="0.5" width="131" height="39" rx="11.5" stroke="#40A0CA"/>
<path d="M44.0929 14.8052C44.0506 14.8368 43.925 14.9304 43.8448 14.991C43.6843 15.1122 43.4542 15.2877 43.1776 15.5035C42.6235 15.936 41.888 16.5262 41.1555 17.1622C40.418 17.8025 39.7063 18.4697 39.1868 19.0576C38.926 19.3527 38.7348 19.6044 38.6141 19.8045C38.5566 19.8999 38.5273 19.9638 38.5126 20C38.5273 20.0362 38.5566 20.1002 38.6141 20.1955C38.7348 20.3956 38.926 20.6473 39.1868 20.9424C39.7063 21.5304 40.418 22.1975 41.1555 22.8379C41.888 23.4739 42.6235 24.0641 43.1776 24.4966C43.4541 24.7124 43.9324 25.0737 44.0929 25.1949C44.5376 25.5224 44.6326 26.1484 44.305 26.5931C43.9775 27.0378 43.351 27.1324 42.9063 26.8049L42.9032 26.8025C42.7325 26.6736 42.2313 26.2951 41.9471 26.0733C41.3763 25.6277 40.6117 25.0144 39.8443 24.3481C39.0818 23.686 38.2935 22.952 37.688 22.2667C37.3863 21.9252 37.1088 21.5723 36.9013 21.2281C36.7104 20.9114 36.4999 20.4761 36.4999 20C36.4999 19.5239 36.7104 19.0887 36.9013 18.772C37.1088 18.4278 37.3863 18.0748 37.688 17.7333C38.2935 17.0481 39.0818 16.314 39.8443 15.652C40.6118 14.9857 41.3763 14.3723 41.9472 13.9268C42.2331 13.7037 42.4717 13.5217 42.6394 13.395C42.7225 13.3323 42.8584 13.231 42.9051 13.1961L42.9064 13.1952C43.351 12.8677 43.9776 12.9623 44.3051 13.407C44.6326 13.8517 44.5376 14.4777 44.0929 14.8052Z" fill="#40A0CA"/>
<path opacity="0.4" d="M50.9511 13.1074C51.2877 13.2775 51.5 13.6227 51.5 13.9999L51.4999 25.9999C51.4999 26.3771 51.2877 26.7222 50.951 26.8923C50.6144 27.0625 50.2107 27.0287 49.9069 26.805L49.9044 26.8031C49.8564 26.7674 49.7218 26.667 49.6394 26.6048C49.4718 26.4782 49.2332 26.2962 48.9472 26.073C48.3764 25.6275 47.6118 25.0142 46.8444 24.3478C46.0819 23.6858 45.2936 22.9518 44.6881 22.2665C44.3864 21.925 44.1089 21.572 43.9014 21.2279C43.7105 20.9111 43.5 20.4759 43.5 19.9998C43.5 19.5237 43.7105 19.0885 43.9014 18.7718C44.1089 18.4276 44.3864 18.0746 44.6881 17.7331C45.2936 17.0479 46.0819 16.3138 46.8444 15.6518C47.6119 14.9855 48.3764 14.3722 48.9473 13.9267C49.2332 13.7035 49.4718 13.5215 49.6395 13.3948C49.7226 13.3321 49.8585 13.2308 49.9052 13.196L49.9064 13.1951C50.2102 12.9714 50.6145 12.9372 50.9511 13.1074Z" fill="#40A0CA"/>
<path d="M69.7969 20.1797H66.9141L66.8984 18.9688H69.5156C69.9479 18.9688 70.3255 18.8958 70.6484 18.75C70.9714 18.6042 71.2214 18.3958 71.3984 18.125C71.5807 17.849 71.6719 17.5208 71.6719 17.1406C71.6719 16.724 71.5911 16.3854 71.4297 16.125C71.2734 15.8594 71.0312 15.6667 70.7031 15.5469C70.3802 15.4219 69.9688 15.3594 69.4688 15.3594H67.25V25.5H65.7422V14.125H69.4688C70.0521 14.125 70.5729 14.1849 71.0312 14.3047C71.4896 14.4193 71.8776 14.6016 72.1953 14.8516C72.5182 15.0964 72.763 15.4089 72.9297 15.7891C73.0964 16.1693 73.1797 16.625 73.1797 17.1562C73.1797 17.625 73.0599 18.0495 72.8203 18.4297C72.5807 18.8047 72.2474 19.112 71.8203 19.3516C71.3984 19.5911 70.9036 19.7448 70.3359 19.8125L69.7969 20.1797ZM69.7266 25.5H66.3203L67.1719 24.2734H69.7266C70.2057 24.2734 70.612 24.1901 70.9453 24.0234C71.2839 23.8568 71.5417 23.6224 71.7188 23.3203C71.8958 23.013 71.9844 22.651 71.9844 22.2344C71.9844 21.8125 71.9089 21.4479 71.7578 21.1406C71.6068 20.8333 71.3698 20.5964 71.0469 20.4297C70.724 20.263 70.3073 20.1797 69.7969 20.1797H67.6484L67.6641 18.9688H70.6016L70.9219 19.4062C71.4688 19.4531 71.9323 19.6094 72.3125 19.875C72.6927 20.1354 72.9818 20.4688 73.1797 20.875C73.3828 21.2812 73.4844 21.7292 73.4844 22.2188C73.4844 22.9271 73.3281 23.526 73.0156 24.0156C72.7083 24.5 72.2734 24.8698 71.7109 25.125C71.1484 25.375 70.487 25.5 69.7266 25.5ZM80.4766 24.0547V19.7031C80.4766 19.3698 80.4089 19.0807 80.2734 18.8359C80.1432 18.5859 79.9453 18.3932 79.6797 18.2578C79.4141 18.1224 79.0859 18.0547 78.6953 18.0547C78.3307 18.0547 78.0104 18.1172 77.7344 18.2422C77.4635 18.3672 77.25 18.5312 77.0938 18.7344C76.9427 18.9375 76.8672 19.1562 76.8672 19.3906H75.4219C75.4219 19.0885 75.5 18.7891 75.6562 18.4922C75.8125 18.1953 76.0365 17.9271 76.3281 17.6875C76.625 17.4427 76.9792 17.25 77.3906 17.1094C77.8073 16.9635 78.2708 16.8906 78.7812 16.8906C79.3958 16.8906 79.9375 16.9948 80.4062 17.2031C80.8802 17.4115 81.25 17.7266 81.5156 18.1484C81.7865 18.5651 81.9219 19.0885 81.9219 19.7188V23.6562C81.9219 23.9375 81.9453 24.237 81.9922 24.5547C82.0443 24.8724 82.1198 25.1458 82.2188 25.375V25.5H80.7109C80.638 25.3333 80.5807 25.112 80.5391 24.8359C80.4974 24.5547 80.4766 24.2943 80.4766 24.0547ZM80.7266 20.375L80.7422 21.3906H79.2812C78.8698 21.3906 78.5026 21.4245 78.1797 21.4922C77.8568 21.5547 77.5859 21.651 77.3672 21.7812C77.1484 21.9115 76.9818 22.0755 76.8672 22.2734C76.7526 22.4661 76.6953 22.6927 76.6953 22.9531C76.6953 23.2188 76.7552 23.4609 76.875 23.6797C76.9948 23.8984 77.1745 24.0729 77.4141 24.2031C77.6589 24.3281 77.9583 24.3906 78.3125 24.3906C78.7552 24.3906 79.1458 24.2969 79.4844 24.1094C79.8229 23.9219 80.0911 23.6927 80.2891 23.4219C80.4922 23.151 80.6016 22.888 80.6172 22.6328L81.2344 23.3281C81.1979 23.5469 81.099 23.7891 80.9375 24.0547C80.776 24.3203 80.5599 24.5755 80.2891 24.8203C80.0234 25.0599 79.7057 25.2604 79.3359 25.4219C78.9714 25.5781 78.5599 25.6562 78.1016 25.6562C77.5286 25.6562 77.026 25.5443 76.5938 25.3203C76.1667 25.0964 75.8333 24.7969 75.5938 24.4219C75.3594 24.0417 75.2422 23.6172 75.2422 23.1484C75.2422 22.6953 75.3307 22.2969 75.5078 21.9531C75.6849 21.6042 75.9401 21.3151 76.2734 21.0859C76.6068 20.8516 77.0078 20.6745 77.4766 20.5547C77.9453 20.4349 78.4688 20.375 79.0469 20.375H80.7266ZM87.5781 24.4688C87.9219 24.4688 88.2396 24.3984 88.5312 24.2578C88.8229 24.1172 89.0625 23.9245 89.25 23.6797C89.4375 23.4297 89.5443 23.1458 89.5703 22.8281H90.9453C90.9193 23.3281 90.75 23.7943 90.4375 24.2266C90.1302 24.6536 89.7266 25 89.2266 25.2656C88.7266 25.526 88.1771 25.6562 87.5781 25.6562C86.9427 25.6562 86.388 25.5443 85.9141 25.3203C85.4453 25.0964 85.0547 24.7891 84.7422 24.3984C84.4349 24.0078 84.2031 23.5599 84.0469 23.0547C83.8958 22.5443 83.8203 22.0052 83.8203 21.4375V21.1094C83.8203 20.5417 83.8958 20.0052 84.0469 19.5C84.2031 18.9896 84.4349 18.5391 84.7422 18.1484C85.0547 17.7578 85.4453 17.4505 85.9141 17.2266C86.388 17.0026 86.9427 16.8906 87.5781 16.8906C88.2396 16.8906 88.8177 17.026 89.3125 17.2969C89.8073 17.5625 90.1953 17.9271 90.4766 18.3906C90.763 18.849 90.9193 19.3698 90.9453 19.9531H89.5703C89.5443 19.6042 89.4453 19.2891 89.2734 19.0078C89.1068 18.7266 88.8776 18.5026 88.5859 18.3359C88.2995 18.1641 87.9635 18.0781 87.5781 18.0781C87.1354 18.0781 86.763 18.1667 86.4609 18.3438C86.1641 18.5156 85.9271 18.75 85.75 19.0469C85.5781 19.3385 85.4531 19.6641 85.375 20.0234C85.3021 20.3776 85.2656 20.7396 85.2656 21.1094V21.4375C85.2656 21.8073 85.3021 22.1719 85.375 22.5312C85.4479 22.8906 85.5703 23.2161 85.7422 23.5078C85.9193 23.7995 86.1562 24.0339 86.4531 24.2109C86.7552 24.3828 87.1302 24.4688 87.5781 24.4688ZM94.0234 13.5V25.5H92.5703V13.5H94.0234ZM99.1875 17.0469L95.5 20.9922L93.4375 23.1328L93.3203 21.5938L94.7969 19.8281L97.4219 17.0469H99.1875ZM97.8672 25.5L94.8516 21.4688L95.6016 20.1797L99.5703 25.5H97.8672Z" fill="#40A0CA"/>
</svg>
