<svg width="20" height="20" viewBox="0 0 20 20" fill="none" xmlns="http://www.w3.org/2000/svg">
<path opacity="0.4" d="M7.56632 2.32288C9.19383 2.28121 10.8055 2.28121 12.433 2.32288H12.483C13.7497 2.35622 14.7747 2.38118 15.5913 2.52289C16.4497 2.67293 17.1497 2.95632 17.7413 3.54816C18.3247 4.13998 18.608 4.82351 18.758 5.67374C18.8997 6.47396 18.9163 7.47427 18.9413 8.70796V8.75796C18.9663 9.58312 18.9663 10.4168 18.9413 11.242V11.292C18.9163 12.5256 18.8997 13.526 18.758 14.3262C18.608 15.1764 18.3247 15.86 17.7413 16.4518C17.1497 17.0436 16.4497 17.327 15.5913 17.477C14.7747 17.6187 13.7497 17.6437 12.483 17.677H12.433C10.8055 17.7187 9.19383 17.7187 7.56632 17.677H7.51798C6.24715 17.6437 5.22468 17.6187 4.40551 17.477C3.54718 17.327 2.84964 17.0436 2.26131 16.4518C1.67464 15.86 1.38966 15.1764 1.243 14.3262C1.103 13.526 1.08216 12.5256 1.0555 11.292V11.242C1.03716 10.4168 1.03716 9.58312 1.0555 8.75796V8.70796C1.083 7.47427 1.10381 6.47396 1.24381 5.67374C1.39048 4.82351 1.67554 4.13998 2.26221 3.54816C2.85054 2.95632 3.548 2.67293 4.40633 2.52289C5.2255 2.38118 6.24804 2.35622 7.51887 2.32288H7.56632Z" fill="white"/>
<path d="M5.11574 6.65594C5.3499 6.26427 5.86159 6.13094 6.25742 6.36427L8.70908 7.81423C9.40908 8.2309 9.74158 8.3309 9.99991 8.3309C10.2582 8.3309 10.5907 8.2309 11.2907 7.81423L13.7417 6.36427C14.1417 6.13094 14.6499 6.26427 14.8832 6.65594C15.1166 7.05594 14.9832 7.56421 14.5916 7.79755L12.1416 9.24755C11.4099 9.68088 10.7416 9.99755 9.99991 9.99755C9.25825 9.99755 8.59075 9.68088 7.86077 9.24755L5.40911 7.79755C5.01328 7.56421 4.88157 7.05594 5.11574 6.65594Z" fill="white"/>
</svg>
