<svg width="20" height="20" viewBox="0 0 20 20" fill="none" xmlns="http://www.w3.org/2000/svg">
<path opacity="0.4" d="M17.7083 7.62494C15.7833 4.59994 12.9666 2.85828 9.99996 2.85828C8.51663 2.85828 7.07496 3.29161 5.75829 4.09994C4.44163 4.91661 3.25829 6.10828 2.29163 7.62494C1.45829 8.93328 1.45829 11.0583 2.29163 12.3666C4.21663 15.3999 7.03329 17.1333 9.99996 17.1333C11.4833 17.1333 12.925 16.6999 14.2416 15.8916C15.5583 15.0749 16.7416 13.8833 17.7083 12.3666C18.5416 11.0666 18.5416 8.93328 17.7083 7.62494ZM9.99996 13.3666C8.13329 13.3666 6.63329 11.8583 6.63329 9.99994C6.63329 8.14161 8.13329 6.63328 9.99996 6.63328C11.8666 6.63328 13.3666 8.14161 13.3666 9.99994C13.3666 11.8583 11.8666 13.3666 9.99996 13.3666Z" fill="#40A0CA"/>
<path d="M10 7.61658C9.36902 7.61658 8.76387 7.86724 8.31769 8.31342C7.87151 8.7596 7.62085 9.36475 7.62085 9.99574C7.62085 10.6267 7.87151 11.2319 8.31769 11.6781C8.76387 12.1242 9.36902 12.3749 10 12.3749C11.3083 12.3749 12.3833 11.3082 12.3833 9.99991C12.3833 8.69158 11.3083 7.61658 10 7.61658Z" fill="#40A0CA"/>
</svg>
