<svg width="123" height="132" viewBox="0 0 123 132" fill="none" xmlns="http://www.w3.org/2000/svg">
<path d="M55.0515 131.48C54.8749 131.124 54.7808 130.736 54.6396 130.366C54.3552 129.621 54.0826 128.873 53.8551 128.106C53.6256 127.338 53.4373 126.561 53.2549 125.781C53.1647 125.396 53.0725 125.012 52.9588 124.635C52.845 124.251 52.6979 123.881 52.592 123.496C52.4057 122.813 52.2978 122.116 52.1645 121.422C51.833 120.741 51.5173 120.036 51.1917 119.252C47.6771 110.75 44.6096 102.192 42.056 93.3602L40.8283 89.114L39.5437 84.5418L38.2139 79.6515L37.3529 76.521C37.2333 76.082 36.3938 75.7542 35.9447 76.0475C29.496 80.263 22.8826 83.8881 15.9573 87.3215C12.5153 89.0277 9.27133 90.6936 6.10191 92.7889C4.2838 93.9909 2.64221 95.3539 1.41249 97.1501C-0.827291 100.424 -0.336977 104.03 2.41273 106.889C5.59981 110.201 9.23994 112.797 13.2233 115.178C23.8966 121.554 35.1955 126.672 47.2554 129.954C49.9011 130.675 52.4528 131.43 55.1554 131.664C55.1182 131.605 55.0789 131.545 55.0475 131.48H55.0515Z" fill="white"/>
<path d="M69.7254 130.069C69.8098 129.26 69.8607 128.451 69.9039 127.638C69.947 126.841 70.0039 126.045 70.1138 125.254C70.2138 124.546 70.3628 123.846 70.4687 123.141C70.5648 122.501 70.6551 121.839 70.912 121.235C70.9159 121.228 70.9218 121.222 70.9257 121.214C70.8336 119.562 70.9257 118.082 70.7218 116.554C70.4943 114.859 70.2922 113.184 69.9372 111.516L68.5859 105.184L68.4251 104.63L67.67 101.703L65.5656 94.0884C65.3498 93.3101 65.3734 92.6372 65.797 91.9433L68.3996 87.7009C68.8958 86.89 68.5212 86.4567 67.9799 85.8222L67.0797 84.764C66.1167 83.633 65.1125 82.5364 63.9495 81.4878C62.6629 81.1715 60.8683 81.3709 59.5346 81.4456L58.1303 82.9486C57.1713 83.9742 56.2671 84.948 55.3061 86.0408C54.9256 86.4721 54.9237 87.2811 55.2453 87.7584L57.8499 91.6193C58.3814 92.4072 58.3579 93.2929 58.1147 94.1958L56.5339 100.085L55.31 104.826L54.4137 108.598C53.8136 111.127 53.4135 113.623 53.0271 116.205C52.7035 118.362 51.7523 120.741 52.8114 122.681C52.7015 122.48 52.5937 122.276 52.4897 122.073C52.5937 122.633 52.7015 123.193 52.8702 123.739C52.9879 124.119 53.1291 124.489 53.233 124.874C53.337 125.255 53.4253 125.641 53.5135 126.026C53.6959 126.806 53.8959 127.581 54.1352 128.348C54.2529 128.729 54.3804 129.107 54.5157 129.483C54.6452 129.843 54.7982 130.198 54.9178 130.562C55.0335 130.911 55.1374 131.273 55.3375 131.587C55.3591 131.62 55.3806 131.651 55.4022 131.683C55.6317 131.701 55.8612 131.714 56.0946 131.724C59.9779 131.873 63.7337 131.904 67.621 131.716C68.28 131.685 68.9311 131.62 69.5764 131.534C69.6176 131.045 69.6705 130.556 69.7215 130.067L69.7254 130.069Z" fill="#41A0CA"/>
<path d="M118.273 93.7105C115.904 92.0561 113.474 90.6394 110.862 89.3071L99.3823 83.4544C95.2754 81.361 91.4254 79.1123 87.6519 76.5071C87.2793 76.2502 86.5987 75.8591 86.1868 76.2023C85.4553 77.8701 85.1219 79.5628 84.6512 81.2997L83.3626 86.0481L82.0446 90.835C79.4538 100.242 75.0527 112.463 71.1086 121.295C70.8222 121.971 70.7379 122.719 70.632 123.438C70.5241 124.164 70.3633 124.883 70.273 125.614C70.1789 126.392 70.1338 127.172 70.0926 127.954C70.0514 128.767 69.9828 129.576 69.8965 130.385C69.8573 130.759 69.82 131.133 69.7867 131.509C72.148 131.173 74.4349 130.519 76.7904 129.848C89.723 126.162 101.92 120.516 113.133 113.253C115.873 111.478 118.189 109.426 120.486 107.222C121.737 106.02 122.376 104.565 123 103.079V100.167C122.133 97.5637 120.645 95.3726 118.267 93.7105H118.273Z" fill="white"/>
<path d="M66.4232 0C71.0439 0.814737 75.5235 1.98029 79.7638 4.2328C89.0308 9.15189 95.9561 17.2782 99.2059 27.1087C101.828 35.0356 101.895 44.3715 99.1941 52.3061C95.7678 62.3686 88.5013 70.7633 78.7518 75.5252C66.5605 81.4794 51.7254 80.5708 40.397 73.2171C33.1128 68.4877 27.5448 61.805 24.4872 53.8436C22.5651 48.8382 21.8865 44.7185 21.8885 39.4103C21.8963 26.4837 28.141 14.6384 38.728 7.0815C44.1391 3.21869 50.2152 0.993021 56.6933 0H66.4212H66.4232ZM92.4376 50.8012C93.0318 49.1814 93.4045 47.596 93.7536 45.8956C95.1186 39.2435 94.2596 32.438 91.553 26.2959C85.5123 12.5853 70.4085 4.6603 55.3694 7.63169C42.6133 10.1526 32.6108 19.9658 29.9003 32.4457C27.0858 45.3971 32.0851 58.6668 43.0683 66.5266C51.1919 72.3391 61.7553 74.0356 71.3538 71.0086C81.325 67.8647 88.9288 60.3691 92.4356 50.8012H92.4376Z" fill="white"/>
<path d="M51.8851 31.4424C51.3771 31.5191 50.4985 31.5498 49.7748 31.452L49.2982 30.1714C50.5848 29.7995 51.3458 30.0621 51.8851 31.4443V31.4424Z" fill="#41A0CA"/>
<path d="M40.5763 37.9547C40.7312 35.7559 41.9865 34.6287 43.9046 34.0689L50.1885 32.2324C50.5925 32.1155 51.3927 32.2113 51.8262 32.38L52.8225 35.4051C54.5072 35.7943 56.6627 37.4314 57.5237 37.2723C58.3082 37.1285 58.4984 35.9457 59.23 35.7387C60.342 35.4243 61.7365 38.1234 64.7235 36.3809C65.4904 35.9323 66.6181 36.2946 67.4144 36.5496C68.2695 35.8173 68.5637 34.4351 68.8089 33.3175C65.7826 33.6644 65.8768 32.2688 63.9841 33.2753C63.2526 32.888 62.221 32.2612 61.5816 31.6707C61.205 30.7851 62.4936 29.562 63.3173 29.9742C63.5409 30.0873 63.8704 30.3096 64.0234 30.3959C64.6706 30.7621 65.0452 29.332 66.0297 29.3205C68.6284 29.2879 70.4701 30.44 70.8388 29.3224C71.3115 27.8846 68.5657 27.99 69.1952 24.6352C68.3833 25.4059 68.0165 26.4564 67.0261 26.3874C66.5907 26.3567 65.8885 25.8487 65.4845 25.6091C64.241 25.7049 63.3663 26.7325 63.0643 27.9383C62.7622 29.1441 61.003 29.4508 60.7264 30.6375C60.4166 31.964 61.9836 33.1411 60.8461 33.2082C60.0969 33.2523 59.3457 32.9034 58.9436 32.3398C57.9963 31.0151 57.1942 31.3928 56.8764 30.7141C56.5587 30.0355 57.4609 29.3971 57.153 28.7933C56.7039 27.9134 55.0858 28.6667 53.7365 26.9606C53.5521 27.0526 53.1775 27.2922 53.0794 27.4859C53.0657 27.5127 53.1873 29.6463 54.3131 29.4815C55.1603 29.3569 56.394 29.8668 56.2763 30.925C56.2057 31.5653 55.5801 32.2305 55.0093 32.89L53.9483 31.8874L55.1898 31.2643C53.252 31.3621 53.3128 28.431 50.2552 27.7274C49.9237 27.6507 49.8119 28.5766 49.8727 28.9255L48.9058 29.2093C48.696 29.2706 48.6528 29.8131 48.5371 30.1026L46.8033 30.2617L45.6697 32.4586C45.1853 33.3961 44.2203 33.9098 43.122 33.5456L41.8433 33.12C41.7138 31.6937 41.7021 30.417 41.8452 28.9946C42.2297 28.7856 42.8847 28.2258 43.2809 28.2028L46.2542 28.0303C46.5484 26.6615 44.7911 27.8693 44.2321 27.3287C44.0497 27.1523 43.9026 26.5657 44.0438 26.3567L44.8636 25.1317C46.5974 24.618 47.8879 23.717 48.9823 22.3406C50.2003 20.8088 50.8848 21.8345 52.2106 20.113L55.7016 20.0229C56.4607 20.0037 56.9157 19.8983 57.306 19.2196C57.8296 18.3071 58.9593 19.4209 59.3065 18.6234C59.8851 17.2949 61.1834 16.5185 62.7917 16.1045L60.0439 15.9779C59.936 15.9722 59.5791 16.0239 59.4889 16.0834C59.3692 16.1639 59.3536 16.3978 59.2418 16.8464C58.469 16.2482 57.9081 15.238 58.4651 14.1223C57.6237 13.7734 56.6568 14.73 56.6686 15.4105C56.7019 15.6616 57.1314 16.2597 57.0745 16.5013C56.9627 16.9748 56.4509 17.8873 56.0331 18.1078C54.6798 18.8247 53.0814 18.1193 52.7186 16.7045L51.3398 15.9568C51.2692 15.2035 50.9554 14.9562 50.0198 14.8239L50.3356 15.4143C50.0414 15.3415 49.7335 15.0712 49.6786 14.8584C49.6295 14.6629 50.1316 14.3159 50.3572 14.3408L51.8791 14.5114C52.5205 13.2864 53.5619 12.7458 54.923 12.558C55.7997 12.4372 56.5332 11.7509 57.2256 11.1739C60.9932 8.03761 60.6813 10.5585 62.7642 9.71501L63.7448 9.31818C63.9076 9.253 64.4078 9.33735 64.4333 9.40636L63.3134 10.8978C63.9018 10.9036 64.3882 10.8767 64.6941 10.9726C65.0609 11.0876 65.2001 12.0097 65.0001 12.2972C64.9687 12.3413 64.7078 12.2723 64.698 12.326L64.6235 12.7171C64.6313 12.6711 65.4413 12.9279 65.4374 12.8724L65.3943 12.1132C65.6414 12.119 66.4397 12.0499 66.777 12.1631L69.0148 12.9126C68.9324 12.4065 68.6226 11.9924 68.348 11.6589C68.1872 11.4633 68.4598 10.9074 68.6853 10.7924C68.9305 10.6678 69.4169 10.7406 69.7267 10.8365L70.2524 10.9994C70.3877 11.0416 70.5269 10.6984 70.7172 10.3821C75.032 11.7988 79.0644 14.0456 82.3182 17.2374L83.2321 18.1346C84.4049 19.2848 84.505 19.5743 85.5621 20.7015C87.0546 22.2907 87.9764 24.2135 88.9943 26.1171C89.5317 27.1235 89.8847 28.1108 90.2437 29.192C90.3809 29.608 90.9046 30.1448 90.783 30.6394C90.6948 31.0017 90.9242 31.1934 91.0301 31.5231C92.6188 36.4326 92.66 41.7946 91.4047 46.8804C90.3064 47.0453 90.5692 45.782 90.2554 45.3775L88.9845 43.7346L87.2429 41.3268C85.6935 41.2348 84.554 42.224 82.5751 40.7306C81.8121 40.1555 79.0114 41.2885 77.3718 38.3132C77.1953 37.9912 76.7069 37.5311 76.3696 37.1975C76.4931 37.7535 76.7501 38.6871 77.107 39.0513L78.678 40.6424C79.1173 41.0872 79.2782 41.576 79.4625 42.3371L81.1276 41.2252C81.3022 41.1083 81.8337 41.0143 81.9926 41.0833C82.7398 41.4092 82.1789 41.9652 83.2321 42.5882C84.7129 43.4643 82.9556 46.3437 82.0083 47.1277C81.5415 47.513 80.4255 47.6607 79.8371 47.8619C78.9291 49.0122 77.7994 49.4205 76.3441 49.7541C75.7439 49.8921 74.3946 50.5669 73.9866 49.7176C73.2276 48.138 72.502 46.591 71.5547 45.1168C70.3465 43.2381 69.4992 41.2424 67.6282 39.7855C67.7812 40.9166 68.2931 41.8348 68.6579 42.8623C69.4247 45.0286 70.8741 47.9386 72.5686 49.4953C73.3002 50.1662 73.7238 50.8966 74.0063 51.8513C74.4279 53.2833 78.2014 50.6244 78.6623 50.3598C77.209 52.6296 79.1075 50.7931 77.7288 54.123C77.0913 55.6623 76.2382 56.8413 74.7535 57.6771C72.2019 59.113 69.8797 61.1949 70.6741 64.3503C70.98 65.5619 70.8976 67.316 69.7875 68.0655C69.0207 68.5831 68.346 68.8822 67.6243 69.5742L69.0128 69.5953L66.5711 70.1666C63.5703 70.8701 58.3906 70.8069 55.2329 69.9231L54.1875 67.2412C54.0248 66.8233 54.519 65.9223 54.7445 65.5063C55.6761 63.7905 53.205 60.6389 51.7242 59.5443C51.4771 58.4631 52.7754 57.0215 51.985 56.1569C51.6595 55.8023 51.1711 55.7697 50.4631 55.8713L48.9 54.514C46.6798 54.121 45.3991 56.293 41.8256 55.5147C40.4096 55.2061 39.729 53.9217 38.9151 52.9287C37.9501 51.7497 36.1713 50.4825 36.8793 48.3891C38.0305 44.996 34.6944 43.3569 40.5763 37.9528V37.9547ZM78.3171 29.7633L79.0899 29.0463L77.9053 29.4393L77.2679 28.1281C77.0502 27.6795 77.5503 27.0066 77.7052 26.466C77.9053 25.774 76.8128 25.3273 76.1637 25.3695C75.5498 25.4097 74.9457 26.1669 75.0124 26.8091C75.1007 26.9529 74.8241 26.9759 74.3102 27.0526C74.9339 27.7638 75.5105 28.3715 76.2676 29.0693L76.4167 30.9768L77.5738 32.01C77.9013 32.3014 78.3505 32.6024 78.6918 32.4395C79.794 31.9104 78.276 30.6068 78.3152 29.7652L78.3171 29.7633Z" fill="#41A0CA"/>
<path d="M44.4995 23.1887L42.8383 23.85C42.5893 23.9497 42.2813 23.2155 42.3343 22.9548C42.401 22.6346 42.905 22.2685 43.2718 22.1726L43.9739 21.9886C44.3505 21.8889 43.5424 20.361 44.7643 20.1521C45.6802 19.9968 46.1509 20.2786 46.6569 20.9074C47.1021 21.4576 47.3022 21.9464 46.9531 22.6691C46.7766 23.0334 46.3784 23.528 46.0509 23.597C45.6449 23.6832 45.0958 23.4609 44.4995 23.1887Z" fill="#41A0CA"/>
<path d="M42.8694 16.3455C41.1553 18.5999 41.3396 17.8062 39.6412 19.7348L38.3605 19.1405C39.2901 18.1532 40.2747 17.1084 41.3495 16.2534C41.9516 15.7742 43.042 15.8355 43.0597 14.7754L45.9231 12.9025L47.2647 14.2003C46.8057 14.9518 46.2448 15.548 45.5917 16.148L45.017 16.6752C44.7562 16.9148 44.0482 15.8835 43.5186 15.8643C43.3264 15.8566 42.991 16.1844 42.8675 16.3474L42.8694 16.3455Z" fill="#41A0CA"/>
<path d="M51.6723 19.3233L50.4151 17.7897C50.57 17.435 50.976 16.9519 51.3467 16.603L52.8726 18.405C53.0334 18.5948 52.8451 19.2754 52.6666 19.4556C52.4881 19.6358 51.839 19.5303 51.6703 19.3233H51.6723Z" fill="#41A0CA"/>
<path d="M74.9596 67.5262C74.1162 67.8943 73.4671 68.1339 72.4707 68.3927L72.7512 67.1869L75.3558 66.0099L74.5752 66.7518C74.4203 66.8994 74.7654 67.3537 74.9596 67.5262Z" fill="#41A0CA"/>
<path d="M36.6392 22.4353C36.5627 22.5005 36.1097 22.3912 36.1136 22.3184C36.1195 22.2129 36.145 21.9407 36.2156 21.8449L37.4139 20.2096C37.7454 20.3688 38.1024 20.6429 38.3142 20.5739L39.2164 20.2863L36.6392 22.4334V22.4353Z" fill="#41A0CA"/>
</svg>
