<svg width="20" height="20" viewBox="0 0 20 20" fill="none" xmlns="http://www.w3.org/2000/svg">
<path d="M15.625 6.66663V8.41663C15.2583 8.36663 14.8417 8.34163 14.375 8.33329V6.66663C14.375 4.04163 13.6333 2.29163 10 2.29163C6.36667 2.29163 5.625 4.04163 5.625 6.66663V8.33329C5.15833 8.34163 4.74167 8.36663 4.375 8.41663V6.66663C4.375 4.24996 4.95833 1.04163 10 1.04163C15.0417 1.04163 15.625 4.24996 15.625 6.66663Z" fill="white"/>
<path opacity="0.4" d="M18.3334 12.4999V14.1666C18.3334 17.4999 17.5001 18.3333 14.1667 18.3333H5.83341C2.50008 18.3333 1.66675 17.4999 1.66675 14.1666V12.4999C1.66675 9.71659 2.25008 8.67492 4.37508 8.41659C4.74175 8.36659 5.15841 8.34159 5.62508 8.33325H14.3751C14.8417 8.34159 15.2584 8.36659 15.6251 8.41659C17.7501 8.67492 18.3334 9.71659 18.3334 12.4999Z" fill="white"/>
<path d="M6.66683 14.1666C6.5585 14.1666 6.45016 14.1416 6.35016 14.0999C6.24183 14.0583 6.1585 13.9999 6.07516 13.9249C5.92516 13.7666 5.8335 13.5499 5.8335 13.3333C5.8335 13.2249 5.8585 13.1166 5.90016 13.0166C5.94183 12.9166 6.00016 12.8249 6.07516 12.7416C6.1585 12.6666 6.24183 12.6083 6.35016 12.5666C6.6585 12.4333 7.02516 12.5083 7.2585 12.7416C7.3335 12.8249 7.39183 12.9166 7.4335 13.0166C7.47516 13.1166 7.50016 13.2249 7.50016 13.3333C7.50016 13.5499 7.4085 13.7666 7.2585 13.9249C7.10016 14.0749 6.8835 14.1666 6.66683 14.1666Z" fill="white"/>
<path d="M10.0001 14.1666C9.77508 14.1666 9.56675 14.075 9.40841 13.925C9.33341 13.8416 9.27508 13.75 9.23341 13.65C9.19061 13.5498 9.16796 13.4422 9.16675 13.3333C9.16675 13.1083 9.25841 12.9 9.40841 12.7416C9.71675 12.4333 10.2751 12.4333 10.5917 12.7416C10.7417 12.9 10.8334 13.1083 10.8334 13.3333C10.8334 13.4416 10.8084 13.55 10.7667 13.65C10.7251 13.75 10.6667 13.8416 10.5917 13.925C10.4334 14.075 10.2167 14.1666 10.0001 14.1666Z" fill="white"/>
<path d="M13.3333 14.1666C13.1167 14.1666 12.9 14.075 12.7417 13.925C12.5917 13.7666 12.5 13.5583 12.5 13.3333C12.5 13.1083 12.5917 12.9 12.7417 12.7416C13.0583 12.4333 13.6167 12.4333 13.925 12.7416C13.9583 12.7833 13.9917 12.825 14.025 12.875C14.0583 12.9166 14.0833 12.9666 14.1 13.0166C14.125 13.0666 14.1417 13.1166 14.15 13.1666C14.1583 13.225 14.1667 13.2833 14.1667 13.3333C14.1667 13.55 14.075 13.7666 13.925 13.925C13.7667 14.075 13.55 14.1666 13.3333 14.1666Z" fill="white"/>
</svg>
