<svg width="24" height="24" viewBox="0 0 24 24" fill="none" xmlns="http://www.w3.org/2000/svg">
<g opacity="0.4">
<path d="M12 5.75C9.65279 5.75 7.75 7.65279 7.75 10C7.75 12.3472 9.65279 14.25 12 14.25C14.3472 14.25 16.25 12.3472 16.25 10C16.25 7.65279 14.3472 5.75 12 5.75Z" fill="white"/>
<path d="M16.9068 16.635C16.7839 16.5682 16.6764 16.5098 16.5911 16.4608C13.7795 14.8464 10.2209 14.8464 7.40932 16.4608C7.32397 16.5098 7.21657 16.5682 7.0936 16.635C6.54127 16.9352 5.67492 17.406 5.08224 17.9654C4.7132 18.3138 4.33146 18.7999 4.26137 19.4182C4.18554 20.0872 4.49363 20.6913 5.04711 21.1997C5.97614 22.0532 7.10575 22.75 8.57089 22.75H15.4295C16.8947 22.75 18.0243 22.0532 18.9533 21.1997C19.5068 20.6913 19.8149 20.0872 19.7391 19.4182C19.669 18.7999 19.2872 18.3138 18.9182 17.9654C18.3255 17.406 17.4592 16.9352 16.9068 16.635Z" fill="white"/>
</g>
<path fill-rule="evenodd" clip-rule="evenodd" d="M12 3.18747C7.13913 3.18747 3.20455 7.07879 3.20455 11.8718C3.20455 13.1249 3.47275 14.3136 3.95472 15.3872C4.17416 15.876 3.95232 16.4485 3.45921 16.6661C2.9661 16.8836 2.38846 16.6637 2.16902 16.1749C1.57794 14.8583 1.25 13.4016 1.25 11.8718C1.25 6.00228 6.06621 1.25 12 1.25C17.9338 1.25 22.75 6.00228 22.75 11.8718C22.75 13.4016 22.4221 14.8583 21.831 16.1749C21.6115 16.6637 21.0339 16.8836 20.5408 16.6661C20.0477 16.4485 19.8258 15.876 20.0453 15.3872C20.5273 14.3136 20.7955 13.1249 20.7955 11.8718C20.7955 7.07879 16.8609 3.18747 12 3.18747Z" fill="white"/>
</svg>
